<?xml version="1.0" encoding="utf-8"?>
<!-- Generator: Adobe Illustrator 21.0.0, SVG Export Plug-In . SVG Version: 6.00 Build 0)  -->
<svg version="1.1" id="Layer_1" xmlns="http://www.w3.org/2000/svg" xmlns:xlink="http://www.w3.org/1999/xlink" x="0px" y="0px"
	 viewBox="0 0 48 48" style="enable-background:new 0 0 48 48;" xml:space="preserve">
<style type="text/css">
	.st0{fill:#70492F;}
	.st1{fill:#DB335B;}
	.st2{fill:#F9B180;stroke:#3F3F3F;stroke-width:3;stroke-miterlimit:10;}
	.st3{fill:#E8E8E8;}
	.st4{fill:#C9456A;}
</style>
<g>
	<polygon class="st0" points="23.8,18.9 18.8,15.8 23.8,10.3 29.1,15.8 	"/>
	<rect x="19" y="16.1" class="st1" width="10.2" height="6.5"/>
	<polygon class="st0" points="32,24.5 16.4,24.5 19,22.4 29.2,22.4 	"/>
	<path class="st2" d="M32,14.9"/>
	<rect x="15.5" y="24.9" class="st1" width="17.4" height="13"/>
	<polygon class="st0" points="37.6,27.1 11.1,27.1 15.5,23.7 32.9,23.8 	"/>
	<path class="st3" d="M27.5,38h-5.9v-5c0-1.6,1.3-2.9,2.9-2.9h0c1.7,0,3,1.4,3,3V38z"/>
	<path class="st3" d="M32.2,38h-3.1v-3.6c0-0.8,0.7-1.5,1.5-1.5h0c0.8,0,1.5,0.7,1.5,1.5V38z"/>
	<path class="st3" d="M19.6,38h-3.1v-3.6c0-0.8,0.7-1.5,1.5-1.5h0c0.8,0,1.5,0.7,1.5,1.5V38z"/>
	<g>
		<path class="st4" d="M36.4,27.6H12.8c-0.5,0-1-0.4-1-1l0,0h24.6V27.6z"/>
		<path class="st4" d="M36.4,26.7c0,0,0.2,0.1,1.1-0.5c1-0.7,1.2-1.5,1.2-1.5s0.4-0.4,0.5,0.1c0.1,0.5-0.7,2-1.5,2.4
			c-0.8,0.4-1.3,0.4-1.3,0.4V26.7z"/>
		<path class="st4" d="M12.2,26.7c0,0-0.2,0.1-1.1-0.5s-1.2-1.5-1.2-1.5s-0.4-0.4-0.5,0.1c-0.1,0.5,0.7,2,1.5,2.4
			c0.8,0.4,1.3,0.4,1.3,0.4V26.7z"/>
	</g>
	<path class="st4" d="M30.4,24H17.9c-0.1,0-0.2-0.1-0.2-0.2l0.4-0.7h12.3L30.4,24z"/>
	<path class="st4" d="M30.4,23.2c0,0,0,0.2,0.8,0c0.8-0.1,1.4-0.6,1.4-0.6s0.4-0.1,0.1,0.3c-0.3,0.4-1.6,1.2-2.2,1.2
		c-0.6,0-0.8-0.2-0.8-0.2L30.4,23.2z"/>
	<path class="st3" d="M25.9,22.4h-3.3v-3.2c0-0.9,0.7-1.7,1.7-1.7h0c0.9,0,1.7,0.7,1.7,1.7V22.4z"/>
	<path class="st3" d="M28.6,22.4H27v-2.8c0-0.5,0.4-0.8,0.8-0.8h0c0.5,0,0.8,0.4,0.8,0.8V22.4z"/>
	<path class="st3" d="M21.1,22.4h-1.7v-2.8c0-0.5,0.4-0.8,0.8-0.8h0c0.5,0,0.8,0.4,0.8,0.8V22.4z"/>
	<path class="st4" d="M18.1,23.2c0,0,0,0.2-0.8,0s-1.4-0.6-1.4-0.6s-0.4-0.1-0.1,0.3c0.3,0.4,1.6,1.2,2.2,1.2c0.6,0,0.8-0.2,0.8-0.2
		L18.1,23.2z"/>
	<path class="st4" d="M29.1,16.7H18.6c-0.1,0-0.1-0.1-0.1-0.2l0.3-0.7h10.3L29.1,16.7z"/>
	<path class="st4" d="M29.1,15.8c0,0,0,0.2,0.7,0c0.7-0.1,1.2-0.6,1.2-0.6s0.4-0.1,0.1,0.3c-0.3,0.4-1.4,1.2-1.8,1.2
		c-0.5,0-0.6-0.2-0.6-0.2L29.1,15.8z"/>
	<path class="st4" d="M18.8,15.8c0,0,0,0.2-0.7,0s-1.2-0.6-1.2-0.6s-0.4-0.1-0.1,0.3c0.3,0.4,1.4,1.2,1.8,1.2c0.5,0,0.6-0.2,0.6-0.2
		L18.8,15.8z"/>
	<ellipse class="st0" cx="23.8" cy="10.7" rx="0.6" ry="0.7"/>
</g>
</svg>
