<?xml version="1.0" encoding="utf-8"?>
<!-- Generator: Adobe Illustrator 21.0.0, SVG Export Plug-In . SVG Version: 6.00 Build 0)  -->
<svg version="1.1" id="Layer_1" xmlns="http://www.w3.org/2000/svg" xmlns:xlink="http://www.w3.org/1999/xlink" x="0px" y="0px"
	 viewBox="0 0 1366 768" style="enable-background:new 0 0 1366 768;" xml:space="preserve">
<style type="text/css">
	.st0{fill:#54A876;}
	.st1{fill:#2D4068;}
	.st2{opacity:0.67;fill:#63667F;}
	.st3{opacity:0.47;fill:#54A876;}
	.st4{fill:#0035A3;}
	.st5{fill:#353535;}
	.st6{fill:#BF7D5C;}
	.st7{fill:#FFFFFF;}
	.st8{fill:#E5E5E5;}
	.st9{fill:#D63C68;}
	.st10{fill:#DD9B85;}
	.st11{fill:#AD00BB;}
	.st12{fill:#776558;}
	.st13{fill:#827064;}
	.st14{fill:#DD997A;}
	.st15{fill:#E8DCD9;}
	.st16{fill:#282828;}
	.st17{fill:#C2C6C4;}
	.st18{fill:#191919;}
	.st19{fill:#9E9E9E;}
</style>
<path class="st0" d="M0,418.4c0,0,238-37.5,476,153.3s354,222.5,508,86.3s258-122.6,320-31.8s62,141.9,62,141.9H0V418.4z"/>
<path class="st1" d="M0,460c0,0,238-33,476,135s354,196,508,76s258-108,320-28s62,125,62,125H0V460z"/>
<path class="st2" d="M1366,460c0,0-238-33-476,135s-354,196-508,76S124,563,62,643S0,768,0,768h1366V460z"/>
<path class="st3" d="M1366,532c0,0-238-25.3-476,103.4s-354,150.2-508,58.2s-258-82.7-320-21.5S0,768,0,768h1366V532z"/>
<g>
	<g>
		<circle class="st0" cx="1237.3" cy="292" r="31"/>
		<path class="st0" d="M1209.9,294.2v22.2c-6.1,0-11.1-5-11.1-11.1S1203.8,294.2,1209.9,294.2z"/>
		<path class="st0" d="M1263.9,292v22.2c6.1,0,11.1-5,11.1-11.1C1275,297,1270,292,1263.9,292z"/>
	</g>
	<path class="st4" d="M1249.2,409H1221c-26.6,0-32.6-13.8-32.6-40.4l-15.7-8c0-12.9,10.5-23.4,23.4-23.4h71.8
		c14.6,0,26.6,11.9,26.6,26.6v0C1294.4,388.6,1274.1,409,1249.2,409z"/>
	<ellipse class="st5" cx="1237.5" cy="296.9" rx="29.5" ry="34.4"/>
	<ellipse class="st6" cx="1237.6" cy="316.2" rx="28.4" ry="29.5"/>
	<g>
		<g>
			<path class="st5" d="M1230.8,306.9c-0.2,2.9-2.6,5.2-5.6,5.2s-5.4-2.3-5.6-5.2H1230.8z"/>
			<path class="st7" d="M1226.8,306.9c0,1.2-1,2.2-2.3,2.2s-2.2-1-2.3-2.2H1226.8z"/>
		</g>
	</g>
	<g>
		<g>
			<path class="st5" d="M1256.3,306.9c-0.2,2.9-2.6,5.2-5.6,5.2c-3,0-5.4-2.3-5.6-5.2H1256.3z"/>
			<path class="st7" d="M1252.3,306.9c0,1.2-1,2.2-2.3,2.2c-1.2,0-2.2-1-2.3-2.2H1252.3z"/>
		</g>
	</g>
	<path class="st5" d="M1213.3,335.7h-1.6c-1.5,0-2.8-1.2-2.8-2.8v-39c0-1.5,1.2-2.8,2.8-2.8h1.6c1.5,0,2.8,1.2,2.8,2.8v39
		C1216,334.4,1214.8,335.7,1213.3,335.7z"/>
	<path class="st5" d="M1263.6,335.7h-1.6c-1.5,0-2.8-1.2-2.8-2.8v-39c0-1.5,1.2-2.8,2.8-2.8h1.6c1.5,0,2.8,1.2,2.8,2.8v39
		C1266.3,334.4,1265.1,335.7,1263.6,335.7z"/>
	<path class="st8" d="M1247.4,331.3c0,2.4-0.8,4.5-2.2,6.2c-2.1-1.7-5,3.1-8.1,3.1c-3,0-5.6-4.9-7.7-3.2c-1.3-1.7-2.1-3.8-2.1-6.1
		H1247.4z"/>
	<path class="st9" d="M1245.3,337.6c-1.8,2.3-4.7,3.8-7.9,3.8c-3.2,0-6.1-1.5-7.9-3.9c2.1-1.7,4.9-0.2,7.9-0.2
		C1240.5,337.3,1243.2,335.8,1245.3,337.6z"/>
	<path class="st10" d="M1237.3,325L1237.3,325c-1.2,0-2.2-1-2.2-2.2v-11.6c0-1.2,1-2.2,2.2-2.2l0,0c1.2,0,2.2,1,2.2,2.2v11.6
		C1239.5,324,1238.5,325,1237.3,325z"/>
	<g>
		<path class="st11" d="M1317.3,435.9h-158.2c-1.4,0-2.6-1.2-2.6-2.6v-25.9c0-1.4,1.2-2.6,2.6-2.6H1304c8.7,0,15.8,7.1,15.8,15.8
			v12.6C1319.8,434.8,1318.7,435.9,1317.3,435.9z"/>
		<path class="st11" d="M1179.1,528.5h-25.6c-1.9,0-3.4-1.5-3.4-3.4V416.3c0-6.1,5-11.1,11.1-11.1h17.9c1.9,0,3.4,1.5,3.4,3.4v116.6
			C1182.5,527,1181,528.5,1179.1,528.5z"/>
		<path class="st11" d="M1316.4,528.5h-25.6c-1.9,0-3.4-1.5-3.4-3.4V408.5c0-1.9,1.5-3.4,3.4-3.4h17.4c6.4,0,11.6,5.2,11.6,11.6
			v108.4C1319.8,527,1318.3,528.5,1316.4,528.5z"/>
	</g>
	<rect x="1193.9" y="429.2" class="st12" width="86.7" height="12.3"/>
	<rect x="1203.4" y="441.5" class="st13" width="67" height="73"/>
	<path class="st14" d="M1158.9,394.8l-1.4-0.9c-3.5-2.3-4.6-7.1-2.2-10.6l16.6-25.5c2.3-3.5,7.1-4.6,10.6-2.2l1.4,0.9
		c3.5,2.3,4.6,7.1,2.2,10.6l-16.6,25.5C1167.3,396.1,1162.5,397.1,1158.9,394.8z"/>
	<path class="st14" d="M1315.2,387.6l-2.1,2.1c-2.8,2.8-7.3,2.8-10,0l-17-17c-2.8-2.8-2.8-7.3,0-10l2.1-2.1c2.8-2.8,7.3-2.8,10,0
		l17,17C1318,380.4,1318,384.9,1315.2,387.6z"/>
	<path class="st14" d="M1158.8,383.3L1158.8,383.3c4.7-0.4,8.9,3,9.3,7.7l5.4,57.9c0.4,4.7-3,8.9-7.7,9.3l0,0
		c-4.7,0.4-8.9-3-9.3-7.7l-5.4-57.9C1150.6,387.9,1154.1,383.7,1158.8,383.3z"/>
	<rect x="1211.6" y="450.2" class="st15" width="50.7" height="64.3"/>
	<g>
		<path class="st16" d="M1174.7,542.9h-25.7c-1.2,0-2.2-1-2.2-2.2v-33.8c0-4.5-1-12.7,3.5-12.7l24.4,4.6c1.2,0,2.2,1,2.2,2.2v39.7
			C1176.9,541.9,1175.9,542.9,1174.7,542.9z"/>
		<path class="st17" d="M1162,516h-0.9c-5.8,0-10.5-4.7-10.5-10.5l0,0c0-2-0.1-6.8,1.9-6.8l16.5,3.2c2,0,3.6,1.6,3.6,3.6l0,0
			C1172.5,511.3,1167.8,516,1162,516z"/>
		<path class="st16" d="M1186.1,548h-7.7c-1.2,0-12.4-0.9-12.4-2.2v-13.5c0-1.4,0.8-13.5,2-13.5l9.2-9c3.2-2.7,11.2,6.9,11.2,11.3
			c0,0,0,0,0,0v24.3C1188.4,546.9,1187.3,548,1186.1,548z"/>
		<path class="st18" d="M1168.2,541.7v1.2h-53.6v-1.2c0-14.1,12.1-25.7,26.8-25.7c7.4,0,14.1,2.9,18.9,7.6
			C1165.2,528.2,1168.2,534.6,1168.2,541.7z"/>
		<rect x="1111.5" y="542.9" class="st16" width="56.7" height="5.1"/>
		<rect x="1168.2" y="542.9" class="st19" width="22.4" height="5.1"/>
	</g>
	<g>
		<path class="st16" d="M1297.8,542.9h25.7c1.2,0,2.2-1,2.2-2.2v-33.8c0-4.5,1-12.7-3.5-12.7l-24.4,4.6c-1.2,0-2.2,1-2.2,2.2v39.7
			C1295.6,541.9,1296.6,542.9,1297.8,542.9z"/>
		<path class="st17" d="M1310.4,516h0.9c5.8,0,10.5-4.7,10.5-10.5l0,0c0-2,0.1-6.8-1.9-6.8l-16.5,3.2c-2,0-3.6,1.6-3.6,3.6l0,0
			C1299.9,511.3,1304.6,516,1310.4,516z"/>
		<path class="st16" d="M1286.4,548h7.7c1.2,0,12.4-0.9,12.4-2.2v-13.5c0-1.4-0.8-13.5-2-13.5l-9.2-9c-3.2-2.7-11.2,6.9-11.2,11.3
			c0,0,0,0,0,0v24.3C1284.1,546.9,1285.1,548,1286.4,548z"/>
		<path class="st18" d="M1304.3,541.7v1.2h53.6v-1.2c0-14.1-12.1-25.7-26.8-25.7c-7.4,0-14.1,2.9-18.9,7.6
			C1307.3,528.2,1304.3,534.6,1304.3,541.7z"/>
		
			<rect x="1304.3" y="542.9" transform="matrix(-1 -4.487001e-11 4.487001e-11 -1 2665.2859 1090.9292)" class="st16" width="56.7" height="5.1"/>
		
			<rect x="1281.9" y="542.9" transform="matrix(-1 -4.486246e-11 4.486246e-11 -1 2586.1499 1090.9292)" class="st19" width="22.4" height="5.1"/>
	</g>
	<path class="st4" d="M1198.6,373.3l-7.4,9.7c-5,6.6-14.4,7.8-21,2.8l-4.7-3.6c-6.6-5-7.8-14.4-2.8-21l14.5-15.1
		c5-6.6,7.4-2.5,13.9,2.5l4.7,3.6C1202.3,357.3,1203.6,366.8,1198.6,373.3z"/>
	<path class="st4" d="M1265.8,373.3l7.4,9.7c5,6.6,14.4,7.8,21,2.8l4.7-3.6c6.6-5,7.8-14.4,2.8-21l-14.5-15.1
		c-5-6.6-7.4-2.5-13.9,2.5l-4.7,3.6C1262.1,357.3,1260.8,366.8,1265.8,373.3z"/>
	<path class="st14" d="M1317.1,381L1317.1,381c1.1,4.6-1.7,9.2-6.2,10.3l-56.5,13.9c-4.6,1.1-9.2-1.7-10.3-6.2l0,0
		c-1.1-4.6,1.7-9.2,6.2-10.3l56.5-13.9C1311.3,373.6,1316,376.5,1317.1,381z"/>
	<g>
		<path class="st15" d="M1279.8,406H1195c-1.5,0-2.7-1.2-2.7-2.7v-52.9c0-1.5,1.2-2.7,2.7-2.7h84.8c1.5,0,2.7,1.2,2.7,2.7v52.9
			C1282.6,404.7,1281.3,406,1279.8,406z"/>
		<circle class="st7" cx="1237.6" cy="377.9" r="9.6"/>
	</g>
</g>
</svg>
