<?xml version="1.0" encoding="utf-8"?>
<!-- Generator: Adobe Illustrator 21.0.0, SVG Export Plug-In . SVG Version: 6.00 Build 0)  -->
<svg version="1.1" id="Layer_1" xmlns="http://www.w3.org/2000/svg" xmlns:xlink="http://www.w3.org/1999/xlink" x="0px" y="0px"
	 viewBox="0 0 1366 768" style="enable-background:new 0 0 1366 768;" xml:space="preserve">
<style type="text/css">
	.st0{fill:#59C673;}
	.st1{opacity:0.45;fill:#59C673;}
	.st2{opacity:0.45;fill:#5B6AC4;}
	.st3{opacity:0.44;fill:#C15BAB;}
	.st4{opacity:0.44;fill:#5B6AC4;}
</style>
<path class="st0" d="M1366,8c0,0-226-10-203,183s-161,380-310,370S713,768,713,768h653V8z"/>
<path class="st1" d="M1366,8c0,0-275.2-27-249,166s-105.5,345-275,335S655,768,655,768h711V8z"/>
<path class="st2" d="M1367,82.9c0,0-174.2-69.6-156,104.1s-195.8,420-314,411S787,767,787,767h580V82.9z"/>
<ellipse class="st3" cx="1026.5" cy="668" rx="84.5" ry="78"/>
<ellipse class="st3" cx="1218.5" cy="577.5" rx="75.5" ry="67.5"/>
<circle class="st4" cx="1274" cy="360" r="59"/>
<circle class="st4" cx="1283" cy="276" r="59"/>
</svg>
