<?xml version="1.0" encoding="utf-8"?>
<!-- Generator: Adobe Illustrator 21.0.0, SVG Export Plug-In . SVG Version: 6.00 Build 0)  -->
<svg version="1.1" id="Layer_1" xmlns="http://www.w3.org/2000/svg" xmlns:xlink="http://www.w3.org/1999/xlink" x="0px" y="0px"
	 viewBox="0 0 1366 768" style="enable-background:new 0 0 1366 768;" xml:space="preserve">
<style type="text/css">
	.st0{fill:#54A876;}
	.st1{fill:#2D4068;}
	.st2{opacity:0.67;fill:#63667F;enable-background:new    ;}
	.st3{opacity:0.47;fill:#54A876;enable-background:new    ;}
</style>
<path class="st0" d="M0,418.4c0,0,238-37.5,476,153.3S830,794.2,984,658s258-122.6,320-31.8s62,141.9,62,141.9H0V418.4z"/>
<path class="st1" d="M0,460c0,0,238-33,476,135s354,196,508,76s258-108,320-28s62,125,62,125H0V460z"/>
<path class="st2" d="M1366,460c0,0-238-33-476,135s-354,196-508,76S124,563,62,643S0,768,0,768h1366V460z"/>
<path class="st3" d="M1366,532c0,0-238-25.3-476,103.4s-354,150.2-508,58.2s-258-82.7-320-21.5S0,768,0,768h1366V532z"/>
</svg>
