<?xml version="1.0" encoding="utf-8"?>
<!-- Generator: Adobe Illustrator 21.0.0, SVG Export Plug-In . SVG Version: 6.00 Build 0)  -->
<svg version="1.1" id="Layer_1" xmlns="http://www.w3.org/2000/svg" xmlns:xlink="http://www.w3.org/1999/xlink" x="0px" y="0px"
	 viewBox="0 0 48 48" style="enable-background:new 0 0 48 48;" xml:space="preserve">
<style type="text/css">
	.st0{fill:#C16387;}
	.st1{fill:#AF416E;}
	.st2{fill:#D82B6D;}
	.st3{fill:#D62D6E;}
	.st4{fill:#F7F7F7;}
	.st5{fill:#BC7D61;}
	.st6{fill:#DB9C83;}
	.st7{fill:#E2A69A;}
	.st8{fill:#99657A;}
	.st9{fill:#D6D6D6;}
</style>
<g>
	<path class="st0" d="M24.2,22.9l-3,0.1c-3.8,0.1-9-0.9-9.2-4.7l1.9-2.1c-0.1-3.8,3.1-6.1,7-6.3h3c3.8-0.1,6.9,2.9,7,6.7l2.1,1.9
		C33.2,22.5,28.1,22.8,24.2,22.9z"/>
	<g>
		<path class="st1" d="M27,41H17V20c0-2.7,2.2-5,5-5h0c2.7,0,5,2.2,5,5V41z"/>
	</g>
	<g>
		<path class="st2" d="M36,41H26V23c0-2.7,2.2-5,5-5h0c2.7,0,5,2.2,5,5V41z"/>
	</g>
	<g>
		<path class="st3" d="M19,41H9V23c0-2.7,2.2-5,5-5h0c2.7,0,5,2.2,5,5V41z"/>
	</g>
	<path class="st4" d="M17.8,39H15v-9.5c0-0.8,0.7-1.5,1.5-1.5h0c0.8,0,1.5,0.7,1.5,1.5v9.3C18,38.9,17.9,39,17.8,39z"/>
	<path class="st4" d="M13,39h-3v-9.5c0-0.8,0.7-1.5,1.5-1.5h0c0.8,0,1.5,0.7,1.5,1.5V39z"/>
	<g>
		<path class="st5" d="M25,40.5h-4V36c0-1.1,0.9-2,2-2h0c1.1,0,2,0.9,2,2V40.5z"/>
		<path class="st6" d="M25,40.5h-4V38c0-1.1,0.9-2,2-2h0c1.1,0,2,0.9,2,2V40.5z"/>
		<path class="st7" d="M25,40.5h-4V39c0-1.1,0.9-2,2-2h0c1.1,0,2,0.9,2,2V40.5z"/>
	</g>
	<path class="st4" d="M30.8,39H28v-9.5c0-0.8,0.7-1.5,1.5-1.5h0c0.8,0,1.5,0.7,1.5,1.5v9.3C31,38.9,30.9,39,30.8,39z"/>
	<path class="st4" d="M34.8,39H32v-9.5c0-0.8,0.7-1.5,1.5-1.5l0,0c0.8,0,1.5,0.7,1.5,1.5v9.3C35,38.9,34.9,39,34.8,39z"/>
	<path class="st4" d="M22.5,29L22.5,29c-0.3,0-0.5-0.2-0.5-0.5v-9c0-0.3,0.2-0.5,0.5-0.5l0,0c0.3,0,0.5,0.2,0.5,0.5v9
		C23,28.8,22.8,29,22.5,29z"/>
	<path class="st8" d="M17,27h-7v-9.5c0-1.9,1.6-3.5,3.5-3.5h0c1.9,0,3.5,1.6,3.5,3.5V27z"/>
	<path class="st8" d="M35,27h-7v-9.5c0-1.9,1.6-3.5,3.5-3.5h0c1.9,0,3.5,1.6,3.5,3.5V27z"/>
	<path class="st8" d="M31,14.5c0,0.2,0,0.3,0,0.5H14c0-0.2,0-0.3,0-0.5C14,9.8,17.8,6,22.5,6S31,9.8,31,14.5z"/>
	<circle class="st8" cx="22" cy="6" r="1"/>
</g>
<path class="st9" d="M12.5,25L12.5,25c-0.3,0-0.5-0.2-0.5-0.5v-7c0-0.3,0.2-0.5,0.5-0.5h0c0.3,0,0.5,0.2,0.5,0.5v7
	C13,24.8,12.8,25,12.5,25z"/>
<path class="st9" d="M33.5,25L33.5,25c-0.3,0-0.5-0.2-0.5-0.5v-7c0-0.3,0.2-0.5,0.5-0.5l0,0c0.3,0,0.5,0.2,0.5,0.5v7
	C34,24.8,33.8,25,33.5,25z"/>
<path class="st9" d="M30.5,27L30.5,27c-0.3,0-0.5-0.2-0.5-0.5v-7c0-0.3,0.2-0.5,0.5-0.5l0,0c0.3,0,0.5,0.2,0.5,0.5v7
	C31,26.8,30.8,27,30.5,27z"/>
<path class="st9" d="M15.5,27L15.5,27c-0.3,0-0.5-0.2-0.5-0.5v-7c0-0.3,0.2-0.5,0.5-0.5h0c0.3,0,0.5,0.2,0.5,0.5v7
	C16,26.8,15.8,27,15.5,27z"/>
</svg>
