<?xml version="1.0" encoding="utf-8"?>
<!-- Generator: Adobe Illustrator 21.0.0, SVG Export Plug-In . SVG Version: 6.00 Build 0)  -->
<svg version="1.1" id="Layer_1" xmlns="http://www.w3.org/2000/svg" xmlns:xlink="http://www.w3.org/1999/xlink" x="0px" y="0px"
	 viewBox="0 0 600 300" style="enable-background:new 0 0 600 300;" xml:space="preserve">
<style type="text/css">
	.st0{fill:#474747;}
	.st1{fill:#C17F72;}
	.st2{fill:#F9F9F9;}
	.st3{fill:#1C1C1C;}
	.st4{fill:#666666;}
	.st5{fill:#C6C1C1;}
	.st6{fill:#2D2D2D;}
	.st7{opacity:0.64;}
	.st8{fill:#848484;}
	.st9{fill:#7C7C7C;}
	.st10{fill:#8C7F4B;}
	.st11{fill:#F4F4F4;}
	.st12{fill:#3F3F3F;}
	.st13{opacity:0.6;fill:#FFFFFF;}
	.st14{opacity:0.59;fill:#FFFFFF;}
	.st15{opacity:0.61;fill:#FFFFFF;}
	.st16{fill:#898163;}
	.st17{fill:#494948;}
	.st18{fill:#A8A7A3;}
	.st19{fill:#444444;}
	.st20{opacity:0.69;}
	.st21{opacity:0.63;}
	.st22{fill:#75BCA4;}
	.st23{fill:#4F4F49;}
	.st24{opacity:0.52;}
	.st25{fill:#FFFFFF;}
	.st26{fill:#8B46A5;}
	.st27{fill:#D3A17D;stroke:#B3B3B3;stroke-width:2.000000e-02;stroke-miterlimit:10;}
	.st28{fill:#EAB386;}
	.st29{fill:#262626;}
	.st30{fill:#EFB27B;}
	.st31{fill:#D18A50;}
	.st32{fill:#0F0F0F;}
	.st33{fill:#C1272D;}
	.st34{fill:#2B2B2B;}
	.st35{fill:#3FAABC;}
	.st36{fill:#333333;}
	.st37{fill:#B5E5EA;}
	.st38{fill:#191919;}
	.st39{fill:#D1D1D1;}
	.st40{filter:url(#Adobe_OpacityMaskFilter);}
	.st41{opacity:0.66;mask:url(#SVGID_1_);}
	.st42{fill:#B77097;}
	.st43{fill:#D32D80;}
	.st44{fill:#CE639E;}
	.st45{filter:url(#Adobe_OpacityMaskFilter_1_);}
	.st46{opacity:0.29;mask:url(#SVGID_2_);}
	.st47{fill:#AA839B;}
	.st48{filter:url(#Adobe_OpacityMaskFilter_2_);}
	.st49{opacity:0.66;mask:url(#SVGID_3_);}
	.st50{opacity:0.6;fill:#D1D1D1;}
	.st51{opacity:0.68;fill:#47A857;}
	.st52{opacity:0.22;}
	.st53{fill:#3F2512;}
</style>
<rect y="234" class="st0" width="602" height="69"/>
<g>
	<rect x="406.5" y="54.2" class="st1" width="32.9" height="62.8"/>
	<g>
		<rect x="408.1" y="56" class="st2" width="11.6" height="18.7"/>
		<rect x="408.8" y="57" class="st3" width="4.3" height="4.5"/>
		<rect x="414.4" y="57" class="st3" width="4.3" height="4.5"/>
		<rect x="408.8" y="62.4" class="st3" width="4.3" height="4.5"/>
		<rect x="414.4" y="62.4" class="st3" width="4.3" height="4.5"/>
		<rect x="408.8" y="68.3" class="st3" width="4.3" height="4.5"/>
		<rect x="414.4" y="68.3" class="st3" width="4.3" height="4.5"/>
	</g>
	<g>
		<rect x="426.1" y="55.1" class="st2" width="11.6" height="18.7"/>
		<rect x="426.7" y="56" class="st3" width="4.3" height="4.5"/>
		<rect x="432.4" y="56" class="st3" width="4.3" height="4.5"/>
		<rect x="426.7" y="61.5" class="st3" width="4.3" height="4.5"/>
		<rect x="432.4" y="61.5" class="st3" width="4.3" height="4.5"/>
		<rect x="426.7" y="67.4" class="st3" width="4.3" height="4.5"/>
		<rect x="432.4" y="67.4" class="st3" width="4.3" height="4.5"/>
	</g>
	<g>
		<rect x="408.1" y="76.1" class="st2" width="11.6" height="18.7"/>
		<rect x="408.8" y="77" class="st3" width="4.3" height="4.5"/>
		<rect x="414.4" y="77" class="st3" width="4.3" height="4.5"/>
		<rect x="408.8" y="82.4" class="st3" width="4.3" height="4.5"/>
		<rect x="414.4" y="82.4" class="st3" width="4.3" height="4.5"/>
		<rect x="408.8" y="88.3" class="st3" width="4.3" height="4.5"/>
		<rect x="414.4" y="88.3" class="st3" width="4.3" height="4.5"/>
	</g>
	<g>
		<rect x="426.1" y="76.5" class="st2" width="11.6" height="18.7"/>
		<rect x="426.7" y="77.4" class="st3" width="4.3" height="4.5"/>
		<rect x="432.4" y="77.4" class="st3" width="4.3" height="4.5"/>
		<rect x="426.7" y="82.9" class="st3" width="4.3" height="4.5"/>
		<rect x="432.4" y="82.9" class="st3" width="4.3" height="4.5"/>
		<rect x="426.7" y="88.8" class="st3" width="4.3" height="4.5"/>
		<rect x="432.4" y="88.8" class="st3" width="4.3" height="4.5"/>
	</g>
	<g>
		<rect x="426.1" y="97.4" class="st2" width="11.6" height="18.7"/>
		<rect x="426.7" y="98.3" class="st3" width="4.3" height="4.5"/>
		<rect x="432.4" y="98.3" class="st3" width="4.3" height="4.5"/>
		<rect x="426.7" y="103.8" class="st3" width="4.3" height="4.5"/>
		<rect x="432.4" y="103.8" class="st3" width="4.3" height="4.5"/>
		<rect x="426.7" y="109.7" class="st3" width="4.3" height="4.5"/>
		<rect x="432.4" y="109.7" class="st3" width="4.3" height="4.5"/>
	</g>
	<g>
		<rect x="408.1" y="97" class="st2" width="11.6" height="18.7"/>
		<rect x="408.8" y="97.9" class="st3" width="4.3" height="4.5"/>
		<rect x="414.4" y="97.9" class="st3" width="4.3" height="4.5"/>
		<rect x="408.8" y="103.4" class="st3" width="4.3" height="4.5"/>
		<rect x="414.4" y="103.4" class="st3" width="4.3" height="4.5"/>
		<rect x="408.8" y="109.3" class="st3" width="4.3" height="4.5"/>
		<rect x="414.4" y="109.3" class="st3" width="4.3" height="4.5"/>
	</g>
	<rect x="403.8" y="44.3" class="st4" width="37.2" height="10.9"/>
	<rect x="402.5" y="43.7" class="st5" width="1.7" height="12.6"/>
	<rect x="421.4" y="43.4" class="st5" width="1.7" height="12.6"/>
	<rect x="440.3" y="43.9" class="st5" width="1.7" height="12.6"/>
	<rect x="402.5" y="43" class="st6" width="39.5" height="1.1"/>
</g>
<g class="st7">
	<polygon class="st8" points="594.3,146.3 600.9,134.4 591.6,127.4 594.1,146.1 	"/>
	<path class="st9" d="M504.7,39.7L504.7,39.7L545.8-11l43.8,47.5v0C566.9,64.5,528.9,65.9,504.7,39.7z"/>
	<rect x="517.3" y="41.2" class="st10" width="59.5" height="155.8"/>
	<rect x="521" y="36.4" class="st5" width="2.6" height="34.1"/>
	<rect x="569.4" y="36.4" class="st5" width="2.6" height="34.1"/>
	<g>
		<rect x="532.1" y="44.9" class="st11" width="27.4" height="31.6"/>
		<rect x="533.6" y="47.3" class="st12" width="10.5" height="11"/>
		<rect x="545.7" y="47.3" class="st12" width="10.5" height="11"/>
		<rect x="533.6" y="61.9" class="st12" width="10.5" height="11"/>
		<rect x="545.7" y="61.3" class="st12" width="10.5" height="11"/>
		<polygon class="st13" points="544.2,61.9 544.2,69.6 542.1,72.9 536.9,72.9 543.8,61.9 		"/>
		<polygon class="st14" points="545.7,61.3 549.4,61.3 545.7,67.1 		"/>
		<polygon class="st15" points="556.3,48.7 556.3,50.4 551.3,58.3 546.1,58.3 553,47.3 554.6,47.3 		"/>
	</g>
	<g>
		<rect x="532.1" y="78.3" class="st11" width="27.4" height="31.6"/>
		<rect x="533.6" y="80.8" class="st12" width="10.5" height="11"/>
		<rect x="545.7" y="80.8" class="st12" width="10.5" height="11"/>
		<rect x="533.6" y="95.4" class="st12" width="10.5" height="11"/>
		<rect x="545.7" y="94.8" class="st12" width="10.5" height="11"/>
		<polygon class="st13" points="544.2,95.4 544.2,103.1 542.1,106.3 536.9,106.3 543.8,95.4 		"/>
		<polygon class="st14" points="545.7,94.8 549.4,94.8 545.7,100.6 		"/>
		<polygon class="st15" points="556.3,82.2 556.3,83.9 551.3,91.7 546.1,91.7 553,80.8 554.6,80.8 		"/>
	</g>
	<g>
		<rect x="532.1" y="111.8" class="st11" width="27.4" height="31.6"/>
		<rect x="533.6" y="114.2" class="st12" width="10.5" height="11"/>
		<rect x="545.7" y="114.2" class="st12" width="10.5" height="11"/>
		<rect x="533.6" y="128.9" class="st12" width="10.5" height="11"/>
		<rect x="545.7" y="128.2" class="st12" width="10.5" height="11"/>
		<polygon class="st13" points="544.2,128.9 544.2,136.6 542.1,139.8 536.9,139.8 543.8,128.9 		"/>
		<polygon class="st14" points="545.7,128.2 549.4,128.2 545.7,134 		"/>
		<polygon class="st15" points="556.3,115.7 556.3,117.3 551.3,125.2 546.1,125.2 553,114.2 554.6,114.2 		"/>
	</g>
	<g>
		<rect x="532.1" y="148.9" class="st11" width="27.4" height="31.6"/>
		<rect x="533.6" y="151.4" class="st12" width="10.5" height="11"/>
		<rect x="545.7" y="151.4" class="st12" width="10.5" height="11"/>
		<rect x="533.6" y="166" class="st12" width="10.5" height="11"/>
		<rect x="545.7" y="165.4" class="st12" width="10.5" height="11"/>
		<polygon class="st13" points="544.2,166 544.2,173.7 542.1,176.9 536.9,176.9 543.8,166 		"/>
		<polygon class="st14" points="545.7,165.4 549.4,165.4 545.7,171.2 		"/>
		<polygon class="st15" points="556.3,152.8 556.3,154.5 551.3,162.3 546.1,162.3 553,151.4 554.6,151.4 		"/>
	</g>
	<rect x="565.7" y="78.3" class="st16" width="27.9" height="69.4"/>
	<rect x="502.1" y="29.1" class="st17" width="90.5" height="10.3"/>
	<g>
		<rect x="571.5" y="102.1" class="st11" width="10.5" height="11"/>
		<rect x="572.1" y="102.9" class="st12" width="4" height="3.8"/>
		<rect x="576.8" y="102.9" class="st12" width="4" height="3.8"/>
		<rect x="572.1" y="108" class="st12" width="4" height="3.8"/>
		<rect x="576.8" y="107.8" class="st12" width="4" height="3.8"/>
		<polygon class="st13" points="576.2,108 576.2,110.6 575.4,111.8 573.4,111.8 576,108 		"/>
		<polygon class="st14" points="576.8,107.8 578.2,107.8 576.8,109.8 		"/>
		<polygon class="st15" points="580.8,103.4 580.8,104 578.9,106.7 576.9,106.7 579.6,102.9 580.2,102.9 		"/>
	</g>
	<g>
		<rect x="571.5" y="119.7" class="st11" width="10.5" height="11"/>
		<rect x="572.1" y="120.6" class="st12" width="4" height="3.8"/>
		<rect x="576.8" y="120.6" class="st12" width="4" height="3.8"/>
		<rect x="572.1" y="125.6" class="st12" width="4" height="3.8"/>
		<rect x="576.8" y="125.4" class="st12" width="4" height="3.8"/>
		<polygon class="st13" points="576.2,125.6 576.2,128.3 575.4,129.4 573.4,129.4 576,125.6 		"/>
		<polygon class="st14" points="576.8,125.4 578.2,125.4 576.8,127.4 		"/>
		<polygon class="st15" points="580.8,121.1 580.8,121.6 578.9,124.4 576.9,124.4 579.6,120.6 580.2,120.6 		"/>
	</g>
	<g>
		<rect x="571.5" y="84.4" class="st11" width="10.5" height="11"/>
		<rect x="572.1" y="85.3" class="st12" width="4" height="3.8"/>
		<rect x="576.8" y="85.3" class="st12" width="4" height="3.8"/>
		<rect x="572.1" y="90.3" class="st12" width="4" height="3.8"/>
		<rect x="576.8" y="90.1" class="st12" width="4" height="3.8"/>
		<polygon class="st13" points="576.2,90.3 576.2,93 575.4,94.1 573.4,94.1 576,90.3 		"/>
		<polygon class="st14" points="576.8,90.1 578.2,90.1 576.8,92.1 		"/>
		<polygon class="st15" points="580.8,85.8 580.8,86.3 578.9,89.1 576.9,89.1 579.6,85.3 580.2,85.3 		"/>
	</g>
	<rect x="565.7" y="134.3" class="st18" width="35.3" height="13.4"/>
	<rect x="496.3" y="184.2" class="st19" width="97.4" height="26.8"/>
</g>
<g class="st20">
	<rect x="460.1" y="33.9" class="st1" width="34.1" height="65.1"/>
	<g>
		<rect x="461.9" y="35.7" class="st2" width="12.1" height="19.4"/>
		<rect x="462.5" y="36.7" class="st3" width="4.5" height="4.7"/>
		<rect x="468.4" y="36.7" class="st3" width="4.5" height="4.7"/>
		<rect x="462.5" y="42.4" class="st3" width="4.5" height="4.7"/>
		<rect x="468.4" y="42.4" class="st3" width="4.5" height="4.7"/>
		<rect x="462.5" y="48.5" class="st3" width="4.5" height="4.7"/>
		<rect x="468.4" y="48.5" class="st3" width="4.5" height="4.7"/>
	</g>
	<g>
		<rect x="480.5" y="34.8" class="st2" width="12.1" height="19.4"/>
		<rect x="481.2" y="35.7" class="st3" width="4.5" height="4.7"/>
		<rect x="487" y="35.7" class="st3" width="4.5" height="4.7"/>
		<rect x="481.2" y="41.4" class="st3" width="4.5" height="4.7"/>
		<rect x="487" y="41.4" class="st3" width="4.5" height="4.7"/>
		<rect x="481.2" y="47.5" class="st3" width="4.5" height="4.7"/>
		<rect x="487" y="47.5" class="st3" width="4.5" height="4.7"/>
	</g>
	<g>
		<rect x="461.9" y="56.5" class="st2" width="12.1" height="19.4"/>
		<rect x="462.5" y="57.5" class="st3" width="4.5" height="4.7"/>
		<rect x="468.4" y="57.5" class="st3" width="4.5" height="4.7"/>
		<rect x="462.5" y="63.1" class="st3" width="4.5" height="4.7"/>
		<rect x="468.4" y="63.1" class="st3" width="4.5" height="4.7"/>
		<rect x="462.5" y="69.3" class="st3" width="4.5" height="4.7"/>
		<rect x="468.4" y="69.3" class="st3" width="4.5" height="4.7"/>
	</g>
	<g>
		<rect x="480.5" y="57" class="st2" width="12.1" height="19.4"/>
		<rect x="481.2" y="57.9" class="st3" width="4.5" height="4.7"/>
		<rect x="487" y="57.9" class="st3" width="4.5" height="4.7"/>
		<rect x="481.2" y="63.6" class="st3" width="4.5" height="4.7"/>
		<rect x="487" y="63.6" class="st3" width="4.5" height="4.7"/>
		<rect x="481.2" y="69.7" class="st3" width="4.5" height="4.7"/>
		<rect x="487" y="69.7" class="st3" width="4.5" height="4.7"/>
	</g>
	<g>
		<rect x="480.5" y="78.7" class="st2" width="12.1" height="19.4"/>
		<rect x="481.2" y="79.6" class="st3" width="4.5" height="4.7"/>
		<rect x="487" y="79.6" class="st3" width="4.5" height="4.7"/>
		<rect x="481.2" y="85.3" class="st3" width="4.5" height="4.7"/>
		<rect x="487" y="85.3" class="st3" width="4.5" height="4.7"/>
		<rect x="481.2" y="91.4" class="st3" width="4.5" height="4.7"/>
		<rect x="487" y="91.4" class="st3" width="4.5" height="4.7"/>
	</g>
	<g>
		<rect x="461.9" y="78.2" class="st2" width="12.1" height="19.4"/>
		<rect x="462.5" y="79.2" class="st3" width="4.5" height="4.7"/>
		<rect x="468.4" y="79.2" class="st3" width="4.5" height="4.7"/>
		<rect x="462.5" y="84.8" class="st3" width="4.5" height="4.7"/>
		<rect x="468.4" y="84.8" class="st3" width="4.5" height="4.7"/>
		<rect x="462.5" y="91" class="st3" width="4.5" height="4.7"/>
		<rect x="468.4" y="91" class="st3" width="4.5" height="4.7"/>
	</g>
	<rect x="457.4" y="23.5" class="st4" width="38.6" height="11.3"/>
	<rect x="456" y="22.9" class="st5" width="1.7" height="13.1"/>
	<rect x="475.6" y="22.7" class="st5" width="1.7" height="13.1"/>
	<rect x="495.3" y="23.1" class="st5" width="1.7" height="13.1"/>
	<rect x="456" y="22.2" class="st6" width="41" height="1.2"/>
</g>
<g>
	<rect x="411.4" y="112.9" class="st1" width="52.4" height="100.1"/>
	<g>
		<rect x="414" y="115.8" class="st2" width="18.5" height="29.7"/>
		<rect x="415.1" y="117.2" class="st3" width="6.9" height="7.3"/>
		<rect x="424.1" y="117.2" class="st3" width="6.9" height="7.3"/>
		<rect x="415.1" y="126" class="st3" width="6.9" height="7.3"/>
		<rect x="424.1" y="126" class="st3" width="6.9" height="7.3"/>
		<rect x="415.1" y="135.4" class="st3" width="6.9" height="7.3"/>
		<rect x="424.1" y="135.4" class="st3" width="6.9" height="7.3"/>
	</g>
	<g>
		<rect x="442.6" y="114.3" class="st2" width="18.5" height="29.7"/>
		<rect x="443.6" y="115.8" class="st3" width="6.9" height="7.3"/>
		<rect x="452.6" y="115.8" class="st3" width="6.9" height="7.3"/>
		<rect x="443.6" y="124.5" class="st3" width="6.9" height="7.3"/>
		<rect x="452.6" y="124.5" class="st3" width="6.9" height="7.3"/>
		<rect x="443.6" y="133.9" class="st3" width="6.9" height="7.3"/>
		<rect x="452.6" y="133.9" class="st3" width="6.9" height="7.3"/>
	</g>
	<g>
		<rect x="414" y="147.7" class="st2" width="18.5" height="29.7"/>
		<rect x="415.1" y="149.2" class="st3" width="6.9" height="7.3"/>
		<rect x="424.1" y="149.2" class="st3" width="6.9" height="7.3"/>
		<rect x="415.1" y="157.9" class="st3" width="6.9" height="7.3"/>
		<rect x="424.1" y="157.9" class="st3" width="6.9" height="7.3"/>
		<rect x="415.1" y="167.3" class="st3" width="6.9" height="7.3"/>
		<rect x="424.1" y="167.3" class="st3" width="6.9" height="7.3"/>
	</g>
	<g>
		<rect x="442.6" y="148.4" class="st2" width="18.5" height="29.7"/>
		<rect x="443.6" y="149.9" class="st3" width="6.9" height="7.3"/>
		<rect x="452.6" y="149.9" class="st3" width="6.9" height="7.3"/>
		<rect x="443.6" y="158.6" class="st3" width="6.9" height="7.3"/>
		<rect x="452.6" y="158.6" class="st3" width="6.9" height="7.3"/>
		<rect x="443.6" y="168" class="st3" width="6.9" height="7.3"/>
		<rect x="452.6" y="168" class="st3" width="6.9" height="7.3"/>
	</g>
	<g>
		<rect x="442.6" y="181.8" class="st2" width="18.5" height="29.7"/>
		<rect x="443.6" y="183.3" class="st3" width="6.9" height="7.3"/>
		<rect x="452.6" y="183.3" class="st3" width="6.9" height="7.3"/>
		<rect x="443.6" y="192" class="st3" width="6.9" height="7.3"/>
		<rect x="452.6" y="192" class="st3" width="6.9" height="7.3"/>
		<rect x="443.6" y="201.4" class="st3" width="6.9" height="7.3"/>
		<rect x="452.6" y="201.4" class="st3" width="6.9" height="7.3"/>
	</g>
	<g>
		<rect x="414" y="181.1" class="st2" width="18.5" height="29.7"/>
		<rect x="415.1" y="182.5" class="st3" width="6.9" height="7.3"/>
		<rect x="424.1" y="182.5" class="st3" width="6.9" height="7.3"/>
		<rect x="415.1" y="191.2" class="st3" width="6.9" height="7.3"/>
		<rect x="424.1" y="191.2" class="st3" width="6.9" height="7.3"/>
		<rect x="415.1" y="200.7" class="st3" width="6.9" height="7.3"/>
		<rect x="424.1" y="200.7" class="st3" width="6.9" height="7.3"/>
	</g>
	<rect x="407.1" y="97" class="st4" width="59.3" height="17.3"/>
	<rect x="405" y="96.1" class="st5" width="2.6" height="20.1"/>
	<rect x="435.2" y="95.7" class="st5" width="2.6" height="20.1"/>
	<rect x="465.4" y="96.4" class="st5" width="2.6" height="20.1"/>
	<rect x="405" y="95" class="st6" width="63" height="1.8"/>
</g>
<g>
	<polygon class="st8" points="543.3,177 549.9,166.7 540.6,160.7 543.1,176.9 	"/>
	<path class="st9" d="M453.7,84.8L453.7,84.8L494.8,41l43.8,41.1v0C515.9,106.3,477.9,107.5,453.7,84.8z"/>
	<rect x="466.3" y="86.2" class="st10" width="59.5" height="134.7"/>
	<rect x="470" y="82" class="st5" width="2.6" height="29.5"/>
	<rect x="518.4" y="82" class="st5" width="2.6" height="29.5"/>
	<g>
		<rect x="481.1" y="89.3" class="st11" width="27.4" height="27.4"/>
		<rect x="482.6" y="91.4" class="st12" width="10.5" height="9.5"/>
		<rect x="494.7" y="91.4" class="st12" width="10.5" height="9.5"/>
		<rect x="482.6" y="104.1" class="st12" width="10.5" height="9.5"/>
		<rect x="494.7" y="103.5" class="st12" width="10.5" height="9.5"/>
		<polygon class="st13" points="493.2,104.1 493.2,110.7 491.1,113.5 485.9,113.5 492.8,104.1 		"/>
		<polygon class="st14" points="494.7,103.5 498.4,103.5 494.7,108.6 		"/>
		<polygon class="st15" points="505.3,92.7 505.3,94.1 500.3,100.9 495.1,100.9 502,91.4 503.6,91.4 		"/>
	</g>
	<g>
		<rect x="481.1" y="118.3" class="st11" width="27.4" height="27.4"/>
		<rect x="482.6" y="120.4" class="st12" width="10.5" height="9.5"/>
		<rect x="494.7" y="120.4" class="st12" width="10.5" height="9.5"/>
		<rect x="482.6" y="133" class="st12" width="10.5" height="9.5"/>
		<rect x="494.7" y="132.5" class="st12" width="10.5" height="9.5"/>
		<polygon class="st13" points="493.2,133 493.2,139.7 491.1,142.5 485.9,142.5 492.8,133 		"/>
		<polygon class="st14" points="494.7,132.5 498.4,132.5 494.7,137.5 		"/>
		<polygon class="st15" points="505.3,121.6 505.3,123 500.3,129.9 495.1,129.9 502,120.4 503.6,120.4 		"/>
	</g>
	<g>
		<rect x="481.1" y="147.2" class="st11" width="27.4" height="27.4"/>
		<rect x="482.6" y="149.3" class="st12" width="10.5" height="9.5"/>
		<rect x="494.7" y="149.3" class="st12" width="10.5" height="9.5"/>
		<rect x="482.6" y="162" class="st12" width="10.5" height="9.5"/>
		<rect x="494.7" y="161.4" class="st12" width="10.5" height="9.5"/>
		<polygon class="st13" points="493.2,162 493.2,168.6 491.1,171.4 485.9,171.4 492.8,162 		"/>
		<polygon class="st14" points="494.7,161.4 498.4,161.4 494.7,166.4 		"/>
		<polygon class="st15" points="505.3,150.6 505.3,152 500.3,158.8 495.1,158.8 502,149.3 503.6,149.3 		"/>
	</g>
	<g>
		<rect x="481.1" y="179.3" class="st11" width="27.4" height="27.4"/>
		<rect x="482.6" y="181.4" class="st12" width="10.5" height="9.5"/>
		<rect x="494.7" y="181.4" class="st12" width="10.5" height="9.5"/>
		<rect x="482.6" y="194.1" class="st12" width="10.5" height="9.5"/>
		<rect x="494.7" y="193.5" class="st12" width="10.5" height="9.5"/>
		<polygon class="st13" points="493.2,194.1 493.2,200.7 491.1,203.5 485.9,203.5 492.8,194.1 		"/>
		<polygon class="st14" points="494.7,193.5 498.4,193.5 494.7,198.5 		"/>
		<polygon class="st15" points="505.3,182.7 505.3,184.1 500.3,190.9 495.1,190.9 502,181.4 503.6,181.4 		"/>
	</g>
	<rect x="514.7" y="118.3" class="st16" width="27.9" height="60"/>
	<rect x="451.1" y="75.6" class="st17" width="90.5" height="8.9"/>
	<g>
		<rect x="520.5" y="138.8" class="st11" width="10.5" height="9.5"/>
		<rect x="521.1" y="139.5" class="st12" width="4" height="3.3"/>
		<rect x="525.8" y="139.5" class="st12" width="4" height="3.3"/>
		<rect x="521.1" y="143.9" class="st12" width="4" height="3.3"/>
		<rect x="525.8" y="143.7" class="st12" width="4" height="3.3"/>
		<polygon class="st13" points="525.2,143.9 525.2,146.2 524.4,147.2 522.4,147.2 525,143.9 		"/>
		<polygon class="st14" points="525.8,143.7 527.2,143.7 525.8,145.5 		"/>
		<polygon class="st15" points="529.8,140 529.8,140.5 527.9,142.8 525.9,142.8 528.6,139.5 529.2,139.5 		"/>
	</g>
	<g>
		<rect x="520.5" y="154.1" class="st11" width="10.5" height="9.5"/>
		<rect x="521.1" y="154.8" class="st12" width="4" height="3.3"/>
		<rect x="525.8" y="154.8" class="st12" width="4" height="3.3"/>
		<rect x="521.1" y="159.2" class="st12" width="4" height="3.3"/>
		<rect x="525.8" y="159" class="st12" width="4" height="3.3"/>
		<polygon class="st13" points="525.2,159.2 525.2,161.5 524.4,162.4 522.4,162.4 525,159.2 		"/>
		<polygon class="st14" points="525.8,159 527.2,159 525.8,160.7 		"/>
		<polygon class="st15" points="529.8,155.2 529.8,155.7 527.9,158.1 525.9,158.1 528.6,154.8 529.2,154.8 		"/>
	</g>
	<g>
		<rect x="520.5" y="123.5" class="st11" width="10.5" height="9.5"/>
		<rect x="521.1" y="124.3" class="st12" width="4" height="3.3"/>
		<rect x="525.8" y="124.3" class="st12" width="4" height="3.3"/>
		<rect x="521.1" y="128.6" class="st12" width="4" height="3.3"/>
		<rect x="525.8" y="128.5" class="st12" width="4" height="3.3"/>
		<polygon class="st13" points="525.2,128.6 525.2,130.9 524.4,131.9 522.4,131.9 525,128.6 		"/>
		<polygon class="st14" points="525.8,128.5 527.2,128.5 525.8,130.2 		"/>
		<polygon class="st15" points="529.8,124.7 529.8,125.2 527.9,127.5 525.9,127.5 528.6,124.3 529.2,124.3 		"/>
	</g>
	<rect x="514.7" y="166.7" class="st18" width="35.3" height="11.6"/>
	<rect x="445.3" y="209.8" class="st19" width="97.4" height="23.2"/>
</g>
<g class="st21">
	<polygon class="st22" points="457,53.8 439.1,53.8 448.2,39.9 457,26 	"/>
	<polygon class="st23" points="457,42.5 457,157 439.1,157 439.1,54.2 	"/>
	<polygon class="st24" points="457,42.5 457,157 448.2,157 448.2,54.2 	"/>
	<rect x="436.9" y="42.5" class="st4" width="20.1" height="11.3"/>
</g>
<g class="st21">
	<polygon class="st22" points="516,26.4 496.3,26.4 506.3,15.7 516,5 	"/>
	<polygon class="st23" points="516,17.7 516,106 496.3,106 496.3,26.7 	"/>
	<polygon class="st24" points="516,17.7 516,106 506.3,106 506.3,26.7 	"/>
	<rect x="493.9" y="17.7" class="st4" width="22.1" height="8.7"/>
</g>
<rect y="262" class="st25" width="602" height="10"/>
<g>
	<path class="st26" d="M106,203H87c-6.6,0-12-5.4-12-12v-28c0-6.6,5.4-12,12-12h19c6.6,0,12,5.4,12,12v28
		C118,197.6,112.6,203,106,203z"/>
	<path class="st27" d="M41.1,209.7L41.1,209.7c-0.2-0.5,0.1-1.1,0.6-1.3l1.9-0.7c0.5-0.2,1.1,0.1,1.3,0.6h0c0.2,0.5-0.1,1.1-0.6,1.3
		l-1.9,0.7C41.9,210.5,41.3,210.2,41.1,209.7z"/>
	<path class="st28" d="M44.6,214.4l-0.4-0.3c-1.4-0.9-1.8-2.8-0.9-4.1l25.9-40.6c0.9-1.4,2.8-1.8,4.1-0.9l0.4,0.3
		c1.4,0.9,1.8,2.8,0.9,4.1l-25.9,40.6C47.9,214.9,46,215.3,44.6,214.4z"/>
	<path class="st28" d="M97,154L97,154c-2.8,0-5-2.3-5-5v-2c0-2.8,2.3-5,5-5h0c2.7,0,5,2.3,5,5v2C102,151.8,99.8,154,97,154z"/>
	<ellipse class="st29" cx="97.5" cy="128" rx="11.5" ry="12"/>
	<circle class="st30" cx="109" cy="134" r="3"/>
	<circle class="st31" cx="109" cy="134" r="2"/>
	<circle class="st30" cx="86" cy="134" r="3"/>
	<circle class="st31" cx="86" cy="134" r="2"/>
	<ellipse class="st30" cx="97.5" cy="135" rx="11.5" ry="12"/>
	<ellipse class="st29" cx="91.5" cy="122" rx="5.2" ry="5"/>
	<ellipse class="st29" cx="94.5" cy="119" rx="5.2" ry="5"/>
	<ellipse class="st29" cx="101.5" cy="119" rx="5.2" ry="5"/>
	<ellipse class="st29" cx="102" cy="124.5" rx="3.7" ry="3.5"/>
	<ellipse class="st29" cx="104.4" cy="127" rx="2.1" ry="2"/>
	<ellipse class="st29" cx="106.4" cy="129" rx="2.1" ry="2"/>
	<ellipse class="st29" cx="91.4" cy="126" rx="2.1" ry="2"/>
	<ellipse class="st29" cx="89.4" cy="127" rx="2.1" ry="2"/>
	<ellipse class="st29" cx="97.4" cy="122" rx="2.1" ry="2"/>
	<path class="st2" d="M102,140c0,1.6-0.8,3.1-2,4c-0.8,0.6-1.9,1-3,1s-2.2-0.4-3-1c-1.2-0.9-2-2.4-2-4H102z"/>
	<g>
		<ellipse class="st2" cx="92.6" cy="132.5" rx="1.6" ry="1.5"/>
		<ellipse class="st32" cx="92.6" cy="132.5" rx="0.9" ry="0.8"/>
		<ellipse class="st25" cx="93.1" cy="132" rx="0.4" ry="0.3"/>
	</g>
	<g>
		<ellipse class="st2" cx="101.6" cy="132.5" rx="1.6" ry="1.5"/>
		<ellipse class="st32" cx="101.6" cy="132.5" rx="0.9" ry="0.8"/>
		<ellipse class="st25" cx="101.1" cy="132" rx="0.4" ry="0.3"/>
	</g>
	<path class="st33" d="M100,144c-0.8,0.6-1.9,1-3,1s-2.2-0.4-3-1c0-1.1,1.3-1,3-1S100,142.9,100,144z"/>
	<path class="st34" d="M94.5,130h-4c-0.3,0-0.5-0.2-0.5-0.5l0,0c0-0.3,0.2-0.5,0.5-0.5h4c0.3,0,0.5,0.2,0.5,0.5l0,0
		C95,129.8,94.8,130,94.5,130z"/>
	<path class="st34" d="M103.5,130h-4c-0.3,0-0.5-0.2-0.5-0.5l0,0c0-0.3,0.2-0.5,0.5-0.5h4c0.3,0,0.5,0.2,0.5,0.5l0,0
		C104,129.8,103.8,130,103.5,130z"/>
	<path class="st34" d="M97,138L97,138c-0.6,0-1-0.4-1-1v-3c0-0.6,0.4-1,1-1l0,0c0.6,0,1,0.4,1,1v3C98,137.6,97.6,138,97,138z"/>
	<path class="st35" d="M117,195v4.8c0,7.3-5.7,13.2-12.6,9.2H88.6c-6.9,4-12.6-1.9-12.6-9.2v-4.4h37.8
		C114.9,195.4,116,195.3,117,195z"/>
	<g>
		<path class="st35" d="M93.5,201.4l-1.9,31.5c-0.1,0.9-0.2,1.7-0.4,2.5c-0.5,1.5-1.2,2.8-2.3,4c-1.1,1.2-2.4,2.1-3.8,2.7
			c-1.4,0.6-2.9,0.8-4.5,0.7l-1-0.1c-0.8,0-1.5-0.3-2-0.8c-0.9-0.7-1.4-1.8-1.3-3l2.3-38.4L93.5,201.4z"/>
		<path class="st35" d="M87.8,274.7l-2.7,0.3c-2.6,0.2-5-1.6-5.3-4l-3.4-29.1l-0.2-1.8c-0.3-2.5,1.6-4.7,4.3-4.9l7.5-0.7l0.1,0.8
			l0.5,4.1l0.7,6l2.9,24.5C92.4,272.2,90.4,274.4,87.8,274.7z"/>
		<g>
			<path class="st36" d="M76.1,279.6l-0.2-0.6c-1.2-4.1,1.2-8.4,5.3-9.6l0.6-0.2c4.1-1.2,8.4,1.2,9.6,5.3l0.2,0.6L76.1,279.6z"/>
			
				<rect x="86.4" y="271.9" transform="matrix(0.9699 -0.2433 0.2433 0.9699 -63.7842 30.016)" class="st36" width="6.4" height="2.6"/>
			<rect x="74" y="277.4" transform="matrix(0.957 -0.29 0.29 0.957 -77.2174 36.2385)" width="19.3" height="2.6"/>
		</g>
		<path class="st37" d="M88.9,239.3l0.6,5.9l-1.2-0.1c-1.8-0.1-3.1-1.5-3.3-3.2c0-0.2,0-0.3,0-0.5l0.2-3c0.1-1.8,1.5-3.2,3.2-3.3
			c0.2,0,0.3,0,0.5,0l2,0.1c0.1,0,0.2,0,0.2,0C90.7,236.8,89.9,238.2,88.9,239.3z"/>
	</g>
	<g>
		<path class="st35" d="M100.4,202l3.8,31.3c0.1,0.9,0.3,1.7,0.6,2.4c0.6,1.5,1.4,2.8,2.5,3.8c1.1,1.1,2.5,1.9,4,2.4
			c1.4,0.5,3,0.7,4.6,0.5l1-0.1c0.8-0.1,1.4-0.4,2-0.9c0.8-0.8,1.3-1.9,1.2-3.1l-4.7-38.1L100.4,202z"/>
		<path class="st35" d="M110.6,274.7l2.7,0.1c2.6,0.1,4.9-1.9,5-4.4l1.6-29.3l0.1-1.8c0.1-2.5-1.9-4.6-4.6-4.7l-7.5-0.2l0,0.8
			l-0.2,4.1l-0.3,6l-1.3,24.7C105.9,272.6,107.9,274.7,110.6,274.7z"/>
		<g>
			<path class="st36" d="M122.6,278.9l0.1-0.6c0.9-4.2-1.7-8.3-5.8-9.2l-0.6-0.1c-4.2-0.9-8.3,1.7-9.2,5.8l-0.1,0.6L122.6,278.9z"/>
			
				<rect x="105.5" y="272.1" transform="matrix(-0.9832 -0.1823 0.1823 -0.9832 165.7101 562.0439)" class="st36" width="6.4" height="2.6"/>
			<rect x="105.3" y="277.2" transform="matrix(-0.9733 -0.2297 0.2297 -0.9733 162.8714 575.9606)" width="19.3" height="2.6"/>
		</g>
		<path class="st37" d="M107.3,239.5l-0.3,6l1.2-0.1c1.7-0.2,3-1.7,3.1-3.4c0-0.2,0-0.3,0-0.5l-0.4-3c-0.2-1.8-1.7-3.1-3.4-3.1
			c-0.2,0-0.3,0-0.5,0l-2,0.2c-0.1,0-0.2,0-0.2,0C105.3,237.1,106.2,238.4,107.3,239.5z"/>
	</g>
	<path class="st26" d="M84.8,169.6l-6.6,9.4l-11.7-8.2l6.6-9.4c2.6-3.7,7.3-4.8,10.6-2.6c1.6,1.1,2.6,2.9,2.8,4.9
		C86.6,165.7,86.1,167.8,84.8,169.6z"/>
	<g>
		<path class="st25" d="M54.6,198.2L54.6,198.2c-0.2,0.2-0.1,0.5,0.1,0.7l1.6,1.2c0.2,0.2,0.5,0.1,0.7-0.1l0,0
			c0.2-0.2,0.1-0.5-0.1-0.7l-1.6-1.2C55.1,197.9,54.8,198,54.6,198.2z"/>
		<ellipse transform="matrix(0.9874 -0.1581 0.1581 0.9874 -30.4726 10.854)" class="st38" cx="53" cy="197" rx="3" ry="3"/>
		<ellipse transform="matrix(0.9874 -0.1581 0.1581 0.9874 -30.4726 10.854)" class="st25" cx="53" cy="197" rx="2" ry="2"/>
	</g>
	<g>
		<g>
			<path class="st39" d="M41.7,236.9L41.7,236.9c-0.3-0.1-0.5-0.5-0.4-0.8l8.8-24.6c0.1-0.3,0.5-0.5,0.8-0.4l0,0
				c0.3,0.1,0.5,0.5,0.4,0.8l-8.8,24.6C42.4,236.8,42,237,41.7,236.9z"/>
			<path class="st39" d="M33.5,233.9L33.5,233.9c-0.3-0.1-0.5-0.5-0.4-0.8l8.8-24.6c0.1-0.3,0.5-0.5,0.8-0.4h0
				c0.3,0.1,0.5,0.5,0.4,0.8l-8.8,24.6C34.1,233.8,33.8,234,33.5,233.9z"/>
			<path class="st39" d="M49.9,213.8l-8.1-3c-0.4-0.1-0.5-0.5-0.4-0.9l0.5-1.4c0.1-0.4,0.5-0.5,0.9-0.4l8.1,3
				c0.4,0.1,0.5,0.5,0.4,0.9l-0.5,1.4C50.6,213.7,50.2,213.9,49.9,213.8z"/>
		</g>
		<g>
			
				<ellipse transform="matrix(5.945868e-02 -0.9982 0.9982 5.945868e-02 -270.5105 273.5387)" class="st29" cx="9.9" cy="280.3" rx="2" ry="2"/>
			
				<ellipse transform="matrix(5.945868e-02 -0.9982 0.9982 5.945868e-02 -270.5105 273.5387)" class="st11" cx="9.9" cy="280.3" rx="1.6" ry="1.5"/>
			<path class="st11" d="M11.6,277.6L11.6,277.6c0.3,0.2,0.4,0.6,0.2,0.8l-0.8,1.2c-0.2,0.3-0.6,0.4-0.9,0.2h0
				c-0.3-0.2-0.4-0.6-0.2-0.8l0.8-1.2C10.9,277.5,11.3,277.4,11.6,277.6z"/>
			<g>
				<g>
					
						<ellipse transform="matrix(5.945868e-02 -0.9982 0.9982 5.945868e-02 -270.5105 273.5387)" class="st39" cx="9.9" cy="280.3" rx="1.3" ry="1.3"/>
				</g>
				<defs>
					<filter id="Adobe_OpacityMaskFilter" filterUnits="userSpaceOnUse" x="8.7" y="279" width="2.5" height="2.6">
						
							<feColorMatrix  type="matrix" values="-1 0 0 0 1  0 -1 0 0 1  0 0 -1 0 1  0 0 0 1 0" color-interpolation-filters="sRGB" result="source"/>
					</filter>
				</defs>
				<mask maskUnits="userSpaceOnUse" x="8.7" y="279" width="2.5" height="2.6" id="SVGID_1_">
					<g class="st40">
						<image style="overflow:visible;" width="8" height="8" xlink:href="4B3AC3A7.jpg"  transform="matrix(1 0 0 1 6 276)">
						</image>
					</g>
				</mask>
				<g class="st41">
					
						<ellipse transform="matrix(5.945868e-02 -0.9982 0.9982 5.945868e-02 -270.5105 273.5387)" class="st42" cx="9.9" cy="280.3" rx="1.3" ry="1.3"/>
				</g>
			</g>
		</g>
		<path class="st43" d="M50.1,250.9l-9.2,25.8c-2,5.5-7.5,8.7-13.1,7.9c-0.8-0.1-1.5-0.3-2.3-0.6l-11.3-4.2
			c-6.2-2.3-9.4-9.3-7.2-15.7l9.2-25.8c2.3-6.3,9.2-9.6,15.4-7.3l11.3,4.2c2.3,0.9,4.2,2.4,5.6,4.3
			C50.8,242.7,51.5,246.9,50.1,250.9z"/>
		<path class="st44" d="M14.7,272.4L14.7,272.4c-3.6-1.3-5.5-5.4-4.2-9.1l3.8-10.5c1.3-3.7,5.4-5.6,9-4.3l0,0
			c3.6,1.3,5.5,5.4,4.2,9.1l-3.8,10.5C22.4,271.8,18.4,273.7,14.7,272.4z"/>
		<path class="st44" d="M37.2,272.1L37.2,272.1c-1.6-0.6-2.4-2.3-1.8-3.9l1.7-4.8c0.6-1.6,2.3-2.4,3.8-1.8h0
			c1.6,0.6,2.4,2.3,1.8,3.9l-1.7,4.8C40.5,271.8,38.8,272.6,37.2,272.1z"/>
		<g>
			<g>
				<path class="st44" d="M50.1,250.9l-9.2,25.8c-2,5.5-7.5,8.7-13.1,7.9c-1-1.6-1.3-3.5-0.6-5.4l13-36.3c1.1-3.2,4.6-4.8,7.7-3.6
					c0.2,0.1,0.4,0.2,0.6,0.3C50.8,242.7,51.5,246.9,50.1,250.9z"/>
			</g>
			<defs>
				<filter id="Adobe_OpacityMaskFilter_1_" filterUnits="userSpaceOnUse" x="26.8" y="238.8" width="24" height="45.9">
					
						<feColorMatrix  type="matrix" values="-1 0 0 0 1  0 -1 0 0 1  0 0 -1 0 1  0 0 0 1 0" color-interpolation-filters="sRGB" result="source"/>
				</filter>
			</defs>
			<mask maskUnits="userSpaceOnUse" x="26.8" y="238.8" width="24" height="45.9" id="SVGID_2_">
				<g class="st45">
					<image style="overflow:visible;" width="29" height="51" xlink:href="4B3AC3A5.jpg"  transform="matrix(1 0 0 1 24 236)">
					</image>
				</g>
			</mask>
			<g class="st46">
				<path class="st42" d="M50.1,250.9l-9.2,25.8c-2,5.5-7.5,8.7-13.1,7.9c-1-1.6-1.3-3.5-0.6-5.4l13-36.3c1.1-3.2,4.6-4.8,7.7-3.6
					c0.2,0.1,0.4,0.2,0.6,0.3C50.8,242.7,51.5,246.9,50.1,250.9z"/>
			</g>
		</g>
		<polygon class="st47" points="28.6,275.4 18.2,271.5 21.7,262 32,265.8 		"/>
		<polygon class="st47" points="35.8,255.3 25.4,251.5 28.8,241.9 39.2,245.7 		"/>
		<g>
			
				<ellipse transform="matrix(5.945868e-02 -0.9982 0.9982 5.945868e-02 -263.7437 293.078)" class="st29" cx="23.7" cy="286.5" rx="2" ry="2"/>
			
				<ellipse transform="matrix(5.945868e-02 -0.9982 0.9982 5.945868e-02 -263.7437 293.078)" class="st11" cx="23.7" cy="286.5" rx="1.6" ry="1.5"/>
			<path class="st11" d="M25.4,283.8L25.4,283.8c0.3,0.2,0.4,0.6,0.2,0.8l-0.8,1.2c-0.2,0.3-0.6,0.4-0.9,0.2h0
				c-0.3-0.2-0.4-0.6-0.2-0.8l0.8-1.2C24.7,283.7,25.1,283.6,25.4,283.8z"/>
			<g>
				<g>
					
						<ellipse transform="matrix(5.945868e-02 -0.9982 0.9982 5.945868e-02 -263.7437 293.078)" class="st39" cx="23.7" cy="286.5" rx="1.3" ry="1.3"/>
				</g>
				<defs>
					<filter id="Adobe_OpacityMaskFilter_2_" filterUnits="userSpaceOnUse" x="22.4" y="285.2" width="2.5" height="2.6">
						
							<feColorMatrix  type="matrix" values="-1 0 0 0 1  0 -1 0 0 1  0 0 -1 0 1  0 0 0 1 0" color-interpolation-filters="sRGB" result="source"/>
					</filter>
				</defs>
				<mask maskUnits="userSpaceOnUse" x="22.4" y="285.2" width="2.5" height="2.6" id="SVGID_3_">
					<g class="st48">
						<image style="overflow:visible;" width="7" height="7" xlink:href="4B3AC3AB.jpg"  transform="matrix(1 0 0 1 20 283)">
						</image>
					</g>
				</mask>
				<g class="st49">
					
						<ellipse transform="matrix(5.945868e-02 -0.9982 0.9982 5.945868e-02 -263.7437 293.078)" class="st42" cx="23.7" cy="286.5" rx="1.3" ry="1.3"/>
				</g>
			</g>
		</g>
		<path class="st50" d="M33.5,279.4L33.5,279.4c-1.6-0.6-3.4,0.5-2.8-1l11.6-32.5c0.6-1.6,2.3-2.4,3.8-1.8h0
			c1.6,0.6,2.4,2.3,1.8,3.9l-10.6,29.6C36.8,279.1,35.1,279.9,33.5,279.4z"/>
	</g>
	<g>
		<path class="st27" d="M45.5,215L45.5,215c-0.3,0-0.5-0.2-0.5-0.5v-3c0-0.3,0.2-0.5,0.5-0.5l0,0c0.3,0,0.5,0.2,0.5,0.5v3
			C46,214.8,45.8,215,45.5,215z"/>
		<path class="st27" d="M46.5,216L46.5,216c-0.3,0-0.5-0.2-0.5-0.5v-3c0-0.3,0.2-0.5,0.5-0.5l0,0c0.3,0,0.5,0.2,0.5,0.5v3
			C47,215.8,46.8,216,46.5,216z"/>
		<path class="st27" d="M47.5,215L47.5,215c-0.3,0-0.5-0.2-0.5-0.5v-3c0-0.3,0.2-0.5,0.5-0.5l0,0c0.3,0,0.5,0.2,0.5,0.5v3
			C48,214.8,47.8,215,47.5,215z"/>
		<path class="st27" d="M48.5,215L48.5,215c-0.3,0-0.5-0.2-0.5-0.5v-2c0-0.3,0.2-0.5,0.5-0.5l0,0c0.3,0,0.5,0.2,0.5,0.5v2
			C49,214.8,48.8,215,48.5,215z"/>
	</g>
	<path class="st28" d="M145.7,212.4l0.4-0.3c1.4-0.9,1.8-2.8,0.9-4.1l-25.9-40.6c-0.9-1.4-2.8-1.8-4.1-0.9l-0.4,0.3
		c-1.4,0.9-1.8,2.8-0.9,4.1l25.9,40.6C142.4,212.9,144.3,213.3,145.7,212.4z"/>
	<path class="st26" d="M105.4,167.6l6.6,9.4l11.7-8.2l-6.6-9.4c-2.6-3.7-7.3-4.8-10.6-2.6c-1.6,1.1-2.6,2.9-2.8,4.9
		C103.6,163.7,104.1,165.8,105.4,167.6z"/>
	<path class="st28" d="M145.5,217h-2c-1.4,0-2.5-1.1-2.5-2.5v-5c0-1.4,1.1-2.5,2.5-2.5h2c1.4,0,2.5,1.1,2.5,2.5v5
		C148,215.9,146.9,217,145.5,217z"/>
</g>
<g>
	<g>
		<path class="st51" d="M332,258.6c0,11.9-10.1,21.6-22.5,21.6c-0.8,0-1.6,0-2.3-0.1c-11.3-1.1-20.1-10.3-20.1-21.5
			c0-11.2,8.8-20.4,20.1-21.5c0.8-0.1,1.6-0.1,2.3-0.1C321.9,237,332,246.7,332,258.6z"/>
		<path class="st52" d="M332,258.6c0,11.9-10.1,21.6-22.5,21.6c-0.8,0-1.6,0-2.3-0.1v-43c0.8-0.1,1.6-0.1,2.3-0.1
			C321.9,237,332,246.7,332,258.6z"/>
	</g>
	<g>
		<rect x="306.9" y="250.7" class="st53" width="2.7" height="47.3"/>
		<polygon class="st53" points="308.5,279.5 293.7,267.3 294.9,265.5 309.7,277.7 		"/>
		<polygon class="st53" points="309.4,263.6 308,262.7 312.3,254.4 313.7,255.3 		"/>
	</g>
</g>
<g>
	<g>
		<path class="st51" d="M416,259.6c0,11.9-10.1,21.6-22.5,21.6c-0.8,0-1.6,0-2.3-0.1c-11.3-1.1-20.1-10.3-20.1-21.5
			c0-11.2,8.8-20.4,20.1-21.5c0.8-0.1,1.6-0.1,2.3-0.1C405.9,238,416,247.7,416,259.6z"/>
		<path class="st52" d="M416,259.6c0,11.9-10.1,21.6-22.5,21.6c-0.8,0-1.6,0-2.3-0.1v-43c0.8-0.1,1.6-0.1,2.3-0.1
			C405.9,238,416,247.7,416,259.6z"/>
	</g>
	<g>
		<rect x="390.9" y="251.7" class="st53" width="2.7" height="47.3"/>
		<polygon class="st53" points="392.5,280.5 377.7,268.3 378.9,266.5 393.7,278.7 		"/>
		<polygon class="st53" points="393.4,264.6 392,263.7 396.3,255.4 397.7,256.3 		"/>
	</g>
</g>
<g>
	<g>
		<path class="st51" d="M463,260.6c0,11.9-10.1,21.6-22.5,21.6c-0.8,0-1.6,0-2.3-0.1c-11.3-1.1-20.1-10.3-20.1-21.5
			c0-11.2,8.8-20.4,20.1-21.5c0.8-0.1,1.6-0.1,2.3-0.1C452.9,239,463,248.7,463,260.6z"/>
		<path class="st52" d="M463,260.6c0,11.9-10.1,21.6-22.5,21.6c-0.8,0-1.6,0-2.3-0.1v-43c0.8-0.1,1.6-0.1,2.3-0.1
			C452.9,239,463,248.7,463,260.6z"/>
	</g>
	<g>
		<rect x="437.9" y="252.7" class="st53" width="2.7" height="47.3"/>
		<polygon class="st53" points="439.5,281.5 424.7,269.3 425.9,267.5 440.7,279.7 		"/>
		<polygon class="st53" points="440.4,265.6 439,264.7 443.3,256.4 444.7,257.3 		"/>
	</g>
</g>
<g>
	<g>
		<path class="st51" d="M516,258.6c0,11.9-10.1,21.6-22.5,21.6c-0.8,0-1.6,0-2.3-0.1c-11.3-1.1-20.1-10.3-20.1-21.5
			c0-11.2,8.8-20.4,20.1-21.5c0.8-0.1,1.6-0.1,2.3-0.1C505.9,237,516,246.7,516,258.6z"/>
		<path class="st52" d="M516,258.6c0,11.9-10.1,21.6-22.5,21.6c-0.8,0-1.6,0-2.3-0.1v-43c0.8-0.1,1.6-0.1,2.3-0.1
			C505.9,237,516,246.7,516,258.6z"/>
	</g>
	<g>
		<rect x="490.9" y="250.7" class="st53" width="2.7" height="47.3"/>
		<polygon class="st53" points="492.5,279.5 477.7,267.3 478.9,265.5 493.7,277.7 		"/>
		<polygon class="st53" points="493.4,263.6 492,262.7 496.3,254.4 497.7,255.3 		"/>
	</g>
</g>
<g>
	<g>
		<path class="st51" d="M567,260.6c0,11.9-10.1,21.6-22.5,21.6c-0.8,0-1.6,0-2.3-0.1c-11.3-1.1-20.1-10.3-20.1-21.5
			c0-11.2,8.8-20.4,20.1-21.5c0.8-0.1,1.6-0.1,2.3-0.1C556.9,239,567,248.7,567,260.6z"/>
		<path class="st52" d="M567,260.6c0,11.9-10.1,21.6-22.5,21.6c-0.8,0-1.6,0-2.3-0.1v-43c0.8-0.1,1.6-0.1,2.3-0.1
			C556.9,239,567,248.7,567,260.6z"/>
	</g>
	<g>
		<rect x="541.9" y="252.7" class="st53" width="2.7" height="47.3"/>
		<polygon class="st53" points="543.5,281.5 528.7,269.3 529.9,267.5 544.7,279.7 		"/>
		<polygon class="st53" points="544.4,265.6 543,264.7 547.3,256.4 548.7,257.3 		"/>
	</g>
</g>
<g>
	<g>
		<path class="st51" d="M602,227.6c0,11.9-10.1,21.6-22.5,21.6c-0.8,0-1.6,0-2.3-0.1c-11.3-1.1-20.1-10.3-20.1-21.5
			c0-11.2,8.8-20.4,20.1-21.5c0.8-0.1,1.6-0.1,2.3-0.1C591.9,206,602,215.7,602,227.6z"/>
		<path class="st52" d="M602,227.6c0,11.9-10.1,21.6-22.5,21.6c-0.8,0-1.6,0-2.3-0.1v-43c0.8-0.1,1.6-0.1,2.3-0.1
			C591.9,206,602,215.7,602,227.6z"/>
	</g>
	<g>
		<rect x="576.9" y="219.7" class="st53" width="2.7" height="47.3"/>
		<polygon class="st53" points="578.5,248.5 563.7,236.3 564.9,234.5 579.7,246.7 		"/>
		<polygon class="st53" points="579.4,232.6 578,231.7 582.3,223.4 583.7,224.3 		"/>
	</g>
</g>
<g>
	<g>
		<path class="st51" d="M375,259.6c0,11.9-10.1,21.6-22.5,21.6c-0.8,0-1.6,0-2.3-0.1c-11.3-1.1-20.1-10.3-20.1-21.5
			c0-11.2,8.8-20.4,20.1-21.5c0.8-0.1,1.6-0.1,2.3-0.1C364.9,238,375,247.7,375,259.6z"/>
		<path class="st52" d="M375,259.6c0,11.9-10.1,21.6-22.5,21.6c-0.8,0-1.6,0-2.3-0.1v-43c0.8-0.1,1.6-0.1,2.3-0.1
			C364.9,238,375,247.7,375,259.6z"/>
	</g>
	<g>
		<rect x="349.9" y="251.7" class="st53" width="2.7" height="47.3"/>
		<polygon class="st53" points="351.5,280.5 336.7,268.3 337.9,266.5 352.7,278.7 		"/>
		<polygon class="st53" points="352.4,264.6 351,263.7 355.3,255.4 356.7,256.3 		"/>
	</g>
</g>
</svg>
