<?xml version="1.0" encoding="utf-8"?>
<!-- Generator: Adobe Illustrator 21.0.0, SVG Export Plug-In . SVG Version: 6.00 Build 0)  -->
<svg version="1.1" id="Layer_1" xmlns="http://www.w3.org/2000/svg" xmlns:xlink="http://www.w3.org/1999/xlink" x="0px" y="0px"
	 viewBox="0 0 600 300" style="enable-background:new 0 0 600 300;" xml:space="preserve">
<style type="text/css">
	.st0{fill:#666666;}
	.st1{fill:#D3D3D3;}
	.st2{fill:#D6D4D5;}
	.st3{fill:#9E9E9E;}
	.st4{opacity:0.68;fill:#EAE9E8;}
	.st5{fill:#EAE9E8;}
	.st6{fill:#3F3121;}
	.st7{fill:#E8215A;}
	.st8{fill:#E0945C;}
	.st9{fill:#A57758;}
	.st10{fill:#2D2A29;}
	.st11{fill:#EDEDED;}
	.st12{fill:#282828;}
	.st13{fill:#E5E1E1;}
	.st14{fill:#AD7D5C;}
	.st15{fill:#E0E0E0;}
	.st16{fill:#DDDDDD;}
	.st17{fill:#3A3A3A;}
	.st18{fill:#F9F9F9;}
	.st19{fill:#126D3B;}
	.st20{fill:#1D1E1E;}
	.st21{fill:#416B6A;}
	.st22{fill:#303030;}
	.st23{fill:#BCBCBC;}
	.st24{fill:#A5BFBE;}
	.st25{opacity:0.57;fill:#A5BFBE;}
	.st26{opacity:0.53;fill:#A5BFBE;}
	.st27{fill:#6B6B6B;}
	.st28{fill:#FFFFFF;}
	.st29{fill:#CCCCCC;}
	.st30{fill:#E20C5E;}
	.st31{fill:#C6C6C6;}
	.st32{fill:#A5A5A5;}
	.st33{fill:#D3A06C;}
	.st34{fill:#5B5652;}
	.st35{fill:#C19770;}
	.st36{fill:#AA8461;}
	.st37{fill:#1C1B1A;}
	.st38{opacity:0.4;fill:#1C1B1A;}
	.st39{opacity:0.47;fill:#9E9E9E;}
	.st40{fill:#F9B180;stroke:#3F3F3F;stroke-width:3;stroke-miterlimit:10;}
	.st41{fill:#A3A3A3;}
	.st42{fill:#3D3532;}
	.st43{fill:#7A7A7A;}
	.st44{fill:#5FAA5B;}
	.st45{fill:#CC926A;}
	.st46{fill:#3F3F3F;}
	.st47{fill:#B78E72;}
	.st48{fill:#D33C63;}
	.st49{fill:#EFEFEF;}
	.st50{fill:#727272;}
	.st51{fill:#4C4C4C;stroke:#3F3F3F;stroke-width:5;stroke-miterlimit:10;}
	.st52{opacity:0.45;fill:#FFFFFF;stroke:#3F3F3F;stroke-miterlimit:10;}
	.st53{opacity:0.34;fill:#FFFFFF;}
	.st54{fill:#E5E5E5;}
	.st55{fill:#A85B96;}
	.st56{fill:#939393;}
	.st57{fill:#5B595B;}
	.st58{fill:#191919;}
</style>
<rect x="1042" y="346" class="st0" width="160" height="81"/>
<polygon class="st1" points="1183,355 1183,406 1058,406 1058,355 1147.1,355 1147.9,354 1164.3,354 1165.5,355 "/>
<rect x="1058" y="355" class="st2" width="125" height="51"/>
<rect x="1063" y="417" class="st3" width="116" height="45"/>
<rect x="1061.3" y="496" class="st4" width="23.5" height="93.8"/>
<polygon class="st5" points="1061.3,502.4 1003.7,502.4 1024.7,496 1085.3,496 "/>
<ellipse class="st6" cx="1126.8" cy="450.3" rx="11.7" ry="11.5"/>
<path class="st7" d="M1138.8,511.7h-24.9c-6.6,0-12-5.4-12-12v-15.1c0-6.6,5.4-12,12-12h24.9c6.6,0,12,5.4,12,12v15.1
	C1150.8,506.3,1145.4,511.7,1138.8,511.7z"/>
<g>
	<g>
		<circle class="st8" cx="1136.6" cy="459.4" r="2.4"/>
	</g>
	<g>
		<circle class="st9" cx="1136.6" cy="459.4" r="2"/>
	</g>
</g>
<g>
	<g>
		<circle class="st8" cx="1116.6" cy="458.9" r="2.4"/>
	</g>
	<g>
		<circle class="st9" cx="1116.6" cy="458.9" r="2"/>
	</g>
</g>
<g>
	<path class="st8" d="M1126.6,478.4L1126.6,478.4c-5.5,0-10-4.5-10-10v-11.7c0-5.5,4.5-10,10-10l0,0c5.5,0,10,4.5,10,10v11.7
		C1136.6,473.9,1132.1,478.4,1126.6,478.4z"/>
</g>
<path class="st10" d="M1126.3,464.8L1126.3,464.8c-0.5,0-1-0.4-1-1v-5.9c0-0.5,0.4-1,1-1l0,0c0.5,0,1,0.4,1,1v5.9
	C1127.3,464.3,1126.9,464.8,1126.3,464.8z"/>
<g>
	<ellipse transform="matrix(0.7208 -0.6932 0.6932 0.7208 -1.6369 904.9363)" class="st11" cx="1122.4" cy="454.5" rx="1" ry="1"/>
	
		<ellipse transform="matrix(0.7208 -0.6932 0.6932 0.7208 -1.6369 904.9363)" class="st12" cx="1122.4" cy="454.5" rx="0.5" ry="0.5"/>
	
		<ellipse transform="matrix(0.7208 -0.6932 0.6932 0.7208 -1.8085 905.0441)" class="st13" cx="1122.5" cy="454.8" rx="0.3" ry="0.3"/>
</g>
<g>
	<ellipse transform="matrix(0.3939 -0.9191 0.9191 0.3939 267.5606 1314.766)" class="st11" cx="1130.7" cy="454.5" rx="1" ry="1"/>
	
		<ellipse transform="matrix(0.3939 -0.9191 0.9191 0.3939 267.5606 1314.766)" class="st12" cx="1130.7" cy="454.5" rx="0.5" ry="0.5"/>
	
		<ellipse transform="matrix(0.3939 -0.9191 0.9191 0.3939 267.3455 1314.9729)" class="st13" cx="1130.8" cy="454.8" rx="0.3" ry="0.3"/>
</g>
<path class="st12" d="M1123.9,452.1h-4.9c-0.3,0-0.5-0.2-0.5-0.5l0,0c0-0.3,0.2-0.5,0.5-0.5h4.9c0.3,0,0.5,0.2,0.5,0.5l0,0
	C1124.4,451.8,1124.2,452.1,1123.9,452.1z"/>
<g>
	<path class="st14" d="M1124.9,452.5h-4.9c-0.3,0-0.5-0.2-0.5-0.5l0,0c0-0.3,0.2-0.5,0.5-0.5h4.9c0.3,0,0.5,0.2,0.5,0.5l0,0
		C1125.4,452.3,1125.1,452.5,1124.9,452.5z"/>
</g>
<path class="st12" d="M1129.3,452.1h4.9c0.3,0,0.5-0.2,0.5-0.5l0,0c0-0.3-0.2-0.5-0.5-0.5h-4.9c-0.3,0-0.5,0.2-0.5,0.5l0,0
	C1128.8,451.8,1129,452.1,1129.3,452.1z"/>
<g>
	<path class="st14" d="M1128.3,452.5h4.9c0.3,0,0.5-0.2,0.5-0.5l0,0c0-0.3-0.2-0.5-0.5-0.5h-4.9c-0.3,0-0.5,0.2-0.5,0.5l0,0
		C1127.8,452.3,1128,452.5,1128.3,452.5z"/>
</g>
<path class="st15" d="M1131.7,467.2c0,0.5-0.1,1-0.3,1.5c-0.4,1-1,1.8-1.8,2.4h-6c-0.8-0.6-1.5-1.5-1.8-2.4c-0.2-0.5-0.3-1-0.3-1.5
	H1131.7z"/>
<path class="st16" d="M1143.6,523.4H1109c-6.6,0-12-5.4-12-12v-17.5c0-6.6,5.4-12,12-12h34.6c6.6,0,12,5.4,12,12v17.5
	C1155.6,518,1150.2,523.4,1143.6,523.4z"/>
<path class="st17" d="M1143.6,523.4H1109c-6.6,0-12-5.4-12-12v-14.1c0-6.6,5.4-12,12-12h34.6c6.6,0,12,5.4,12,12v14.1
	C1155.6,518,1150.2,523.4,1143.6,523.4z"/>
<circle class="st18" cx="1126.6" cy="505.1" r="4.2"/>
<path class="st19" d="M1080.4,590.8L1080.4,590.8c-4.8,0-8.8-4-8.8-8.8v-47.2c0-4.8,4-8.8,8.8-8.8l0,0c4.8,0,8.8,4,8.8,8.8V582
	C1089.2,586.9,1085.2,590.8,1080.4,590.8z"/>
<path class="st19" d="M1176.7,588.4L1176.7,588.4c-4.8,0-8.8-4-8.8-8.8v-44.8c0-4.8,4-8.8,8.8-8.8l0,0c4.8,0,8.8,4,8.8,8.8v44.8
	C1185.5,584.4,1181.5,588.4,1176.7,588.4z"/>
<path class="st19" d="M1175.7,542h-94.8c-5.1,0-9.3-4.2-9.3-9.3l0,0c0-5.1,4.2-9.3,9.3-9.3h94.8c5.1,0,9.3,4.2,9.3,9.3l0,0
	C1185,537.8,1180.8,542,1175.7,542z"/>
<g>
	<path class="st20" d="M1083.8,602.1L1083.8,602.1c-1.6,0-2.9-1.3-2.9-2.9v-7.3c0-1.6,1.3-2.9,2.9-2.9l0,0c1.6,0,2.9,1.3,2.9,2.9
		v7.3C1086.8,600.7,1085.4,602.1,1083.8,602.1z"/>
	<path class="st21" d="M1076.7,596.7L1076.7,596.7c-3.4,0-6.1-2.7-6.1-6.1v-4.4c0-3.4,2.7-6.1,6.1-6.1l0,0c3.4,0,6.1,2.7,6.1,6.1
		v4.4C1082.8,593.9,1080.1,596.7,1076.7,596.7z"/>
	<path class="st20" d="M1082.8,602.1h-22.5c0-6.2,5-11.2,11.2-11.2S1082.8,595.9,1082.8,602.1z"/>
	<rect x="1057.9" y="602.1" class="st22" width="28.8" height="2.9"/>
	<path class="st20" d="M1077.5,589.9h-1.5c-1.9,0-3.4-1.5-3.4-3.4l0,0c0-1.9,1.5-3.4,3.4-3.4h1.5c1.9,0,3.4,1.5,3.4,3.4l0,0
		C1080.9,588.3,1079.3,589.9,1077.5,589.9z"/>
	<path class="st23" d="M1072.1,596.2h-6.8c-0.3,0-0.5-0.2-0.5-0.5l0,0c0-0.3,0.2-0.5,0.5-0.5h6.8c0.3,0,0.5,0.2,0.5,0.5l0,0
		C1072.6,596,1072.4,596.2,1072.1,596.2z"/>
	<path class="st23" d="M1081.1,597.7h-3.9c-0.1,0-0.2,0.1-0.2,0.2l0,0c0,0.1,0.1,0.2,0.2,0.2h3.9c0.1,0,0.2-0.1,0.2-0.2l0,0
		C1081.4,597.8,1081.3,597.7,1081.1,597.7z"/>
</g>
<g>
	<path class="st20" d="M1171.3,598.6L1171.3,598.6c1.6,0,2.9-1.3,2.9-2.9v-7.3c0-1.6-1.3-2.9-2.9-2.9l0,0c-1.6,0-2.9,1.3-2.9,2.9
		v7.3C1168.4,597.3,1169.7,598.6,1171.3,598.6z"/>
	<path class="st21" d="M1178.4,593.3L1178.4,593.3c3.4,0,6.1-2.7,6.1-6.1v-4.4c0-3.4-2.7-6.1-6.1-6.1h0c-3.4,0-6.1,2.7-6.1,6.1v4.4
		C1172.3,590.5,1175,593.3,1178.4,593.3z"/>
	<path class="st20" d="M1172.3,598.6h22.5c0-6.2-5-11.2-11.2-11.2S1172.3,592.4,1172.3,598.6z"/>
	
		<rect x="1168.4" y="598.6" transform="matrix(-1 -4.492330e-11 4.492330e-11 -1 2365.5342 1200.2273)" class="st22" width="28.8" height="2.9"/>
	<path class="st20" d="M1177.6,586.4h1.5c1.9,0,3.4-1.5,3.4-3.4l0,0c0-1.9-1.5-3.4-3.4-3.4h-1.5c-1.9,0-3.4,1.5-3.4,3.4l0,0
		C1174.2,584.9,1175.8,586.4,1177.6,586.4z"/>
	<path class="st23" d="M1183,592.8h6.8c0.3,0,0.5-0.2,0.5-0.5l0,0c0-0.3-0.2-0.5-0.5-0.5h-6.8c-0.3,0-0.5,0.2-0.5,0.5l0,0
		C1182.5,592.6,1182.7,592.8,1183,592.8z"/>
	<path class="st23" d="M1174,594.3h3.9c0.1,0,0.2,0.1,0.2,0.2l0,0c0,0.1-0.1,0.2-0.2,0.2h-3.9c-0.1,0-0.2-0.1-0.2-0.2l0,0
		C1173.7,594.4,1173.8,594.3,1174,594.3z"/>
</g>
<rect x="1090.7" y="542" class="st24" width="71.8" height="7.8"/>
<path class="st25" d="M1112.2,542h-10.8c-1.1,0-2-0.9-2-2l0,0c0-1.1,0.9-2,2-2h10.8c1.1,0,2,0.9,2,2l0,0
	C1114.1,541.1,1113.2,542,1112.2,542z"/>
<path class="st26" d="M1154.7,542h-10.8c-1.1,0-2-0.9-2-2l0,0c0-1.1,0.9-2,2-2h10.8c1.1,0,2,0.9,2,2l0,0
	C1156.6,541.1,1155.7,542,1154.7,542z"/>
<polygon class="st27" points="1140.5,546.9 1140.5,586.9 1134.1,586.9 1134.1,559.1 1119.5,559.1 1119.5,586.9 1112.6,586.9 
	1112.6,546.9 "/>
<circle class="st28" cx="1118" cy="549.8" r="2"/>
<circle class="st28" cx="1133.2" cy="549.8" r="2"/>
<rect x="1090.2" y="542" class="st6" width="73.3" height="3.4"/>
<ellipse class="st6" cx="1117.5" cy="443" rx="4.4" ry="4.6"/>
<ellipse class="st6" cx="1121" cy="439.6" rx="4.4" ry="4.6"/>
<ellipse class="st6" cx="1126.3" cy="437.6" rx="4.4" ry="4.6"/>
<ellipse class="st6" cx="1131.2" cy="439.1" rx="4.4" ry="4.6"/>
<ellipse class="st6" cx="1135.6" cy="440.6" rx="4.4" ry="4.6"/>
<ellipse class="st6" cx="1135.1" cy="444.5" rx="4.4" ry="4.6"/>
<ellipse class="st6" cx="1127.8" cy="445.5" rx="4.4" ry="4.6"/>
<ellipse class="st6" cx="1121.4" cy="443.5" rx="4.4" ry="4.6"/>
<path class="st29" d="M1131.7,467.2c0,0.5-0.1,1-0.3,1.5h-9.7c-0.2-0.5-0.3-1-0.3-1.5H1131.7z"/>
<path class="st30" d="M1128.8,470.9c0,0.1,0,0.2,0,0.2h-4.8c0-0.1,0-0.2,0-0.2c0-0.5,0.2-0.9,0.5-1.2c0.3-0.3,0.7-0.5,1.2-0.5h1.5
	C1128,469.2,1128.8,469.9,1128.8,470.9z"/>
<rect x="1003.7" y="502.4" class="st23" width="57.7" height="80.6"/>
<rect x="998.8" y="583" class="st31" width="66" height="6.8"/>
<rect x="1010.5" y="509.2" class="st31" width="41.5" height="70.9"/>
<rect x="995.9" y="507.8" class="st32" width="71.3" height="28.3"/>
<path class="st28" d="M1040.1,524.9H1022c-0.7,0-1.2-0.5-1.2-1.2l0,0c0-0.7,0.5-1.2,1.2-1.2h18.1c0.7,0,1.2,0.5,1.2,1.2l0,0
	C1041.3,524.3,1040.8,524.9,1040.1,524.9z"/>
<circle class="st28" cx="1030.8" cy="528.5" r="1.7"/>
<g>
	<path class="st33" d="M1033.6,503.9l-13.6-0.5c-1.9-0.1-3.4-1.7-3.3-3.6l0,0c0.1-1.9,1.7-3.4,3.6-3.3l13.6,0.5L1033.6,503.9z"/>
	<path class="st34" d="M1031.5,499.6l-13.1-0.5c-0.3,0-0.5-0.2-0.5-0.5l0,0c0-0.3,0.2-0.5,0.5-0.5l13.1,0.5c0.3,0,0.5,0.2,0.5,0.5
		l0,0C1032,499.4,1031.8,499.6,1031.5,499.6z"/>
	<path class="st34" d="M1031.5,501.2l-13.1-0.5c-0.3,0-0.5-0.2-0.5-0.5l0,0c0-0.3,0.2-0.5,0.5-0.5l13.1,0.5c0.3,0,0.5,0.2,0.5,0.5
		l0,0C1032,501,1031.7,501.2,1031.5,501.2z"/>
	<path class="st34" d="M1031.4,502.9l-13.1-0.5c-0.3,0-0.5-0.2-0.5-0.5l0,0c0-0.3,0.2-0.5,0.5-0.5l13.1,0.5c0.3,0,0.5,0.2,0.5,0.5
		l0,0C1031.9,502.7,1031.7,502.9,1031.4,502.9z"/>
	<polygon class="st35" points="1047.4,496 1033.6,503.9 1033.8,497 1048.1,491.6 	"/>
	<polygon class="st36" points="1033.8,497.3 1018.3,497 1034,490.7 1048.1,491.6 	"/>
</g>
<rect x="995.9" y="542.5" class="st32" width="71.3" height="28.3"/>
<path class="st28" d="M1040.1,559.6H1022c-0.7,0-1.2-0.5-1.2-1.2l0,0c0-0.7,0.5-1.2,1.2-1.2h18.1c0.7,0,1.2,0.5,1.2,1.2l0,0
	C1041.3,559,1040.8,559.6,1040.1,559.6z"/>
<circle class="st28" cx="1030.8" cy="563.2" r="1.7"/>
<g>
	<path class="st37" d="M1065.7,489.2L1065.7,489.2c-0.2-0.1-0.3-0.2-0.2-0.4l3-4.4c0.1-0.1,0.3-0.2,0.5-0.1l0,0
		c0.2,0.1,0.3,0.2,0.2,0.4l-3,4.4C1066.1,489.2,1065.9,489.3,1065.7,489.2z"/>
	<polygon class="st35" points="1069.6,487.6 1067.7,498.9 1060.8,498.9 1058.9,487.6 	"/>
	<polygon class="st38" points="1069.6,487.6 1067.7,498.9 1063.9,498.9 1063.9,487.6 	"/>
</g>
<polygon class="st39" points="1172.3,361.5 1134.7,406 1114.3,406 1108.7,401.5 1147.1,356 1147.9,355 1164.3,355 1165.5,356 "/>
<path class="st40" d="M289,86.5"/>
<g>
	<rect x="25.7" y="211.5" class="st41" width="154" height="66.2"/>
	<rect x="145.5" y="228.3" class="st42" width="27.8" height="44"/>
	<rect x="30.2" y="228.3" class="st42" width="27.8" height="44"/>
	<path class="st42" d="M159.2,211.5H42.5v-35.1c0-30,24.4-54.4,54.4-54.4h7.2c30.4,0,55,24.6,55,55V211.5z"/>
	<path class="st41" d="M154.4,221.6H46.2v-39c0-27.9,22.6-50.5,50.5-50.5h6.7c28.2,0,51.1,22.9,51.1,51.1V221.6z"/>
	<rect x="72.5" y="234.2" class="st43" width="61.1" height="43.5"/>
	<path class="st31" d="M179.2,216.3h-12.7c-6.6,0-12-5.4-12-12V189c0-6.6,5.4-12,12-12h12.7c6.6,0,12,5.4,12,12v15.3
		C191.2,210.9,185.8,216.3,179.2,216.3z"/>
	<path class="st31" d="M34.7,220.5H22c-6.6,0-12-5.4-12-12v-15.3c0-6.6,5.4-12,12-12h12.7c6.6,0,12,5.4,12,12v15.3
		C46.7,215.1,41.3,220.5,34.7,220.5z"/>
	<path class="st44" d="M79.8,161.7l-34.2,23.5c-3.5,2.4-8.4,1.5-10.8-2l-0.6-0.8c-2.4-3.5-1.5-8.4,2-10.8l34.2-23.5
		c3.5-2.4,8.4-1.5,10.8,2l0.6,0.8C84.2,154.5,83.3,159.3,79.8,161.7z"/>
	<path class="st45" d="M28.1,182.4l0.2-0.6c1-2.5,3.9-3.7,6.3-2.7l42.9,17.6c2.5,1,3.7,3.9,2.7,6.3l-0.2,0.6c-1,2.5-3.9,3.7-6.3,2.7
		l-42.9-17.6C28.3,187.7,27.1,184.8,28.1,182.4z"/>
	<path class="st44" d="M115.6,161.1l34.2,23.5c3.5,2.4,8.4,1.5,10.8-2l0.6-0.8c2.4-3.5,1.5-8.4-2-10.8L125,147.6
		c-3.5-2.4-8.4-1.5-10.8,2l-0.6,0.8C111.2,153.9,112.1,158.7,115.6,161.1z"/>
	<path class="st45" d="M167.4,181.8l-0.2-0.6c-1-2.5-3.9-3.7-6.3-2.7l-42.9,17.6c-2.5,1-3.7,3.9-2.7,6.3l0.2,0.6
		c1,2.5,3.9,3.7,6.3,2.7l42.9-17.6C167.2,187.1,168.4,184.3,167.4,181.8z"/>
	<g>
		<path class="st44" d="M120.2,196H77.6c-3,0-5.5-2.5-5.5-5.5V162c0-12.5,10.3-22.8,22.8-22.8h3.3c15.1,0,27.4,12.3,27.4,27.4v24
			C125.6,193.6,123.2,196,120.2,196z"/>
		<path class="st46" d="M117.5,114.3c-3.6-9.1-12.4-15.5-22.7-15.5c-13.4,0-24.4,10.9-24.4,24.4s10.9,24.4,24.4,24.4
			s24.4-10.9,24.4-24.4c0-3-0.6-6-1.6-8.6C117.5,114.5,117.5,114.4,117.5,114.3z"/>
		<g>
			<ellipse class="st45" cx="75.1" cy="133" rx="2.2" ry="2.3"/>
			<ellipse class="st47" cx="75.1" cy="133" rx="1.7" ry="1.7"/>
		</g>
		<g>
			<ellipse class="st45" cx="119.1" cy="119.4" rx="2.2" ry="2.3"/>
			<ellipse class="st47" cx="119.1" cy="119.4" rx="1.7" ry="1.7"/>
		</g>
		<ellipse class="st45" cx="97.9" cy="129.1" rx="22.8" ry="22.9"/>
		<ellipse class="st46" cx="77.9" cy="111" rx="12.1" ry="12.2"/>
		<ellipse class="st46" cx="90.9" cy="108.6" rx="12.1" ry="12.2"/>
		<ellipse class="st46" cx="87.2" cy="98" rx="12.1" ry="12.2"/>
		<ellipse class="st46" cx="73.3" cy="107.1" rx="12.1" ry="12.2"/>
		<ellipse class="st46" cx="97.9" cy="105.1" rx="12.1" ry="12.2"/>
		<ellipse class="st46" cx="104.2" cy="103.6" rx="12.1" ry="12.2"/>
		<g>
			<path class="st28" d="M106.4,141.5c0,1.7-0.9,3.3-2.4,4.4c-1.3,0.9-2.9,1.5-4.7,1.5c-1.8,0-3.5-0.6-4.7-1.5
				c-1.5-1.1-2.4-2.6-2.4-4.4c0,0,0,0,0-0.1L106.4,141.5C106.4,141.4,106.4,141.4,106.4,141.5z"/>
			<path class="st48" d="M104,145.8c-1.3,0.9-2.9,1.5-4.7,1.5c-1.8,0-3.5-0.6-4.7-1.5c0.6-1.5,2.4-0.2,4.7-0.2
				S103.4,144.4,104,145.8z"/>
		</g>
		<g>
			<ellipse class="st28" cx="87.9" cy="130.7" rx="3.1" ry="2.8"/>
			<ellipse class="st17" cx="87.9" cy="130.7" rx="1.5" ry="1.4"/>
			<ellipse class="st49" cx="87" cy="130.2" rx="0.6" ry="0.5"/>
		</g>
		<g>
			<ellipse class="st28" cx="106.1" cy="124" rx="3.1" ry="2.8"/>
			<ellipse class="st17" cx="106.1" cy="124" rx="1.5" ry="1.4"/>
			<ellipse class="st49" cx="105.2" cy="123.5" rx="0.6" ry="0.5"/>
		</g>
		<path class="st50" d="M99.7,136.3l-0.3,0.1c-1.2,0.4-2.6-0.3-3-1.5l-1.3-3.8c-0.4-1.2,0.3-2.6,1.5-3l0.3-0.1
			c1.2-0.4,2.6,0.3,3,1.5l1.3,3.8C101.6,134.5,100.9,135.9,99.7,136.3z"/>
		<path class="st51" d="M125.6,115.2"/>
		<path class="st51" d="M122,115.2"/>
		<path class="st51" d="M121.1,115.2"/>
		<path class="st51" d="M120.2,115.2"/>
		<g>
			<path class="st52" d="M91.8,135l-4.9,1.3c-0.3,0.1-0.6,0.1-0.9,0.2c-0.6,0-1.2,0-1.7-0.2c-0.3-0.1-0.7-0.2-1-0.4
				c-0.6-0.3-1-0.7-1.5-1.2c-0.5-0.5-0.8-1.2-1-1.9l-0.4-1.4c-0.3-1.2,0.4-2.5,1.6-2.8l1.5-0.4l1.9-0.5l1.2-0.3l1.9-0.5l3.1-0.8
				c0,0,0.1,0,0.1,0l1.6,6.2C93.7,133.4,93,134.6,91.8,135z"/>
			<path class="st53" d="M85.5,127.6l-2.2,8.2c-0.6-0.3-1-0.7-1.5-1.2l1.8-6.6L85.5,127.6z"/>
		</g>
		<g>
			<path class="st52" d="M105.1,129.6l4.5-2.2c0.3-0.1,0.6-0.3,0.8-0.5c0.5-0.4,0.9-0.8,1.2-1.3c0.2-0.3,0.3-0.6,0.5-0.9
				c0.2-0.6,0.3-1.2,0.3-1.8c0-0.7-0.2-1.4-0.5-2.1l-0.7-1.3c-0.6-1.1-1.9-1.6-3.1-1l-1.4,0.7l-1.8,0.9l-1.1,0.5l-1.8,0.9l-2.9,1.4
				c0,0,0,0.1,0,0.1l2.8,5.7C102.6,129.7,104,130.1,105.1,129.6z"/>
			<path class="st53" d="M104.9,119.9l7.1,4.7c0.2-0.6,0.3-1.2,0.3-1.8l-5.7-3.8L104.9,119.9z"/>
		</g>
		
			<rect x="92.1" y="126.5" transform="matrix(0.9496 -0.3135 0.3135 0.9496 -34.9061 36.6288)" class="st28" width="8.6" height="0.7"/>
		<path class="st50" d="M117.5,200.5H81.2c-6.6,0-12-5.4-12-12v-16.4c0-6.6,5.4-12,12-12h36.4c6.6,0,12,5.4,12,12v16.4
			C129.5,195.1,124.1,200.5,117.5,200.5z"/>
		<path class="st54" d="M117.5,205.8H81.2c-6.6,0-12-5.4-12-12v-16.4c0-6.6,5.4-12,12-12h36.4c6.6,0,12,5.4,12,12v16.4
			C129.5,200.4,124.1,205.8,117.5,205.8z"/>
		<circle class="st28" cx="100.1" cy="182.9" r="4.3"/>
		<path class="st55" d="M134.3,225.1H57.5c-5.1,0-9.3-4.2-9.3-9.3v-1.2c0-5.1,4.2-9.3,9.3-9.3h76.8c5.1,0,9.3,4.2,9.3,9.3v1.2
			C143.6,220.9,139.4,225.1,134.3,225.1z"/>
		<path class="st55" d="M50.5,281.2h-1c-4.3,0-7.9-3.6-7.9-7.9v-60.1c0-4.3,3.6-7.9,7.9-7.9h1c4.3,0,7.9,3.6,7.9,7.9v60.1
			C58.4,277.6,54.9,281.2,50.5,281.2z"/>
		<path class="st55" d="M148.3,281.2h-1c-4.3,0-7.9-3.6-7.9-7.9v-60.1c0-4.3,3.6-7.9,7.9-7.9h1c4.3,0,7.9,3.6,7.9,7.9v60.1
			C156.2,277.6,152.6,281.2,148.3,281.2z"/>
		<g>
			<path class="st56" d="M53.5,292.3h-0.7c-2.7,0-5-2.2-5-5v-3.6c0-2.7,2.2-5,5-5h0.7c2.7,0,5,2.2,5,5v3.6
				C58.4,290.1,56.2,292.3,53.5,292.3z"/>
			<path class="st57" d="M47.4,281.9h-1.1c-4.7,0-8.6-3.9-8.6-8.6v-2.2c0-4.7,3.9-8.6,8.6-8.6h1.1c4.7,0,8.6,3.9,8.6,8.6v2.2
				C56,278.1,52.1,281.9,47.4,281.9z"/>
			<path class="st58" d="M53,293.1C53,293.2,53,293.2,53,293.1l-35.4,0.1c0,0,0-0.1,0-0.1c0-9.8,7.9-17.7,17.7-17.7
				S53,283.4,53,293.1z"/>
			<rect x="16.2" y="292.3" class="st56" width="41.5" height="3.5"/>
			<rect x="41.6" y="265.1" class="st23" width="10.7" height="7.2"/>
		</g>
		<g>
			<path class="st56" d="M144.7,294.4h0.7c2.7,0,5-2.2,5-5v-3.6c0-2.7-2.2-5-5-5h-0.7c-2.7,0-5,2.2-5,5v3.6
				C139.7,292.1,141.9,294.4,144.7,294.4z"/>
			<path class="st57" d="M150.7,284h1.1c4.7,0,8.6-3.9,8.6-8.6v-2.2c0-4.7-3.9-8.6-8.6-8.6h-1.1c-4.7,0-8.6,3.9-8.6,8.6v2.2
				C142.1,280.1,146,284,150.7,284z"/>
			<path class="st58" d="M145.1,295.2C145.1,295.2,145.1,295.2,145.1,295.2l35.4,0.1c0,0,0-0.1,0-0.1c0-9.8-7.9-17.7-17.7-17.7
				C153,277.5,145.1,285.4,145.1,295.2z"/>
			
				<rect x="140.4" y="294.4" transform="matrix(-1 -4.490465e-11 4.490465e-11 -1 322.3688 592.2224)" class="st56" width="41.5" height="3.5"/>
			
				<rect x="145.8" y="267.1" transform="matrix(-1 -4.488022e-11 4.488022e-11 -1 302.3694 541.4831)" class="st23" width="10.7" height="7.2"/>
		</g>
	</g>
</g>
</svg>
