<?xml version="1.0" encoding="utf-8"?>
<!-- Generator: Adobe Illustrator 21.0.0, SVG Export Plug-In . SVG Version: 6.00 Build 0)  -->
<svg version="1.1" id="Layer_1" xmlns="http://www.w3.org/2000/svg" xmlns:xlink="http://www.w3.org/1999/xlink" x="0px" y="0px"
	 viewBox="0 0 600 300" style="enable-background:new 0 0 600 300;" xml:space="preserve">
<style type="text/css">
	.st0{fill:#666666;}
	.st1{fill:#D3D3D3;}
	.st2{fill:#D6D4D5;}
	.st3{fill:#9E9E9E;}
	.st4{opacity:0.68;fill:#EAE9E8;}
	.st5{fill:#EAE9E8;}
	.st6{fill:#3F3121;}
	.st7{fill:#E8215A;}
	.st8{fill:#E0945C;}
	.st9{fill:#A57758;}
	.st10{fill:#2D2A29;}
	.st11{fill:#EDEDED;}
	.st12{fill:#282828;}
	.st13{fill:#E5E1E1;}
	.st14{fill:#AD7D5C;}
	.st15{fill:#E0E0E0;}
	.st16{fill:#DDDDDD;}
	.st17{fill:#3A3A3A;}
	.st18{fill:#F9F9F9;}
	.st19{fill:#126D3B;}
	.st20{fill:#1D1E1E;}
	.st21{fill:#416B6A;}
	.st22{fill:#303030;}
	.st23{fill:#BCBCBC;}
	.st24{fill:#A5BFBE;}
	.st25{opacity:0.57;fill:#A5BFBE;}
	.st26{opacity:0.53;fill:#A5BFBE;}
	.st27{fill:#6B6B6B;}
	.st28{fill:#FFFFFF;}
	.st29{fill:#CCCCCC;}
	.st30{fill:#E20C5E;}
	.st31{fill:#C6C6C6;}
	.st32{fill:#A5A5A5;}
	.st33{fill:#D3A06C;}
	.st34{fill:#5B5652;}
	.st35{fill:#C19770;}
	.st36{fill:#AA8461;}
	.st37{fill:#1C1B1A;}
	.st38{opacity:0.4;fill:#1C1B1A;}
	.st39{opacity:0.47;fill:#9E9E9E;}
</style>
<rect x="430" y="23" class="st0" width="160" height="81"/>
<polygon class="st1" points="571,32 571,83 446,83 446,32 535.1,32 535.9,31 552.3,31 553.5,32 "/>
<rect x="446" y="32" class="st2" width="125" height="51"/>
<rect x="451" y="94" class="st3" width="116" height="45"/>
<rect x="449.3" y="173" class="st4" width="23.5" height="93.8"/>
<polygon class="st5" points="449.3,179.4 391.7,179.4 412.7,173 473.3,173 "/>
<ellipse class="st6" cx="514.8" cy="127.3" rx="11.7" ry="11.5"/>
<path class="st7" d="M526.8,188.7h-24.9c-6.6,0-12-5.4-12-12v-15.1c0-6.6,5.4-12,12-12h24.9c6.6,0,12,5.4,12,12v15.1
	C538.8,183.3,533.4,188.7,526.8,188.7z"/>
<g>
	<g>
		<circle class="st8" cx="524.6" cy="136.4" r="2.4"/>
	</g>
	<g>
		<circle class="st9" cx="524.6" cy="136.4" r="2"/>
	</g>
</g>
<g>
	<g>
		<circle class="st8" cx="504.6" cy="135.9" r="2.4"/>
	</g>
	<g>
		<circle class="st9" cx="504.6" cy="135.9" r="2"/>
	</g>
</g>
<g>
	<path class="st8" d="M514.6,155.4L514.6,155.4c-5.5,0-10-4.5-10-10v-11.7c0-5.5,4.5-10,10-10l0,0c5.5,0,10,4.5,10,10v11.7
		C524.6,150.9,520.1,155.4,514.6,155.4z"/>
</g>
<path class="st10" d="M514.3,141.8L514.3,141.8c-0.5,0-1-0.4-1-1v-5.9c0-0.5,0.4-1,1-1l0,0c0.5,0,1,0.4,1,1v5.9
	C515.3,141.3,514.9,141.8,514.3,141.8z"/>
<g>
	<ellipse transform="matrix(0.7208 -0.6932 0.6932 0.7208 51.3707 390.5264)" class="st11" cx="510.4" cy="131.5" rx="1" ry="1"/>
	
		<ellipse transform="matrix(0.7208 -0.6932 0.6932 0.7208 51.3707 390.5264)" class="st12" cx="510.4" cy="131.5" rx="0.5" ry="0.5"/>
	
		<ellipse transform="matrix(0.7208 -0.6932 0.6932 0.7208 51.1992 390.6341)" class="st13" cx="510.5" cy="131.8" rx="0.3" ry="0.3"/>
</g>
<g>
	<ellipse transform="matrix(0.3939 -0.9191 0.9191 0.3939 193.523 556.4852)" class="st11" cx="518.7" cy="131.5" rx="1" ry="1"/>
	
		<ellipse transform="matrix(0.3939 -0.9191 0.9191 0.3939 193.523 556.4852)" class="st12" cx="518.7" cy="131.5" rx="0.5" ry="0.5"/>
	
		<ellipse transform="matrix(0.3939 -0.9191 0.9191 0.3939 193.308 556.6921)" class="st13" cx="518.8" cy="131.8" rx="0.3" ry="0.3"/>
</g>
<path class="st12" d="M511.9,129.1H507c-0.3,0-0.5-0.2-0.5-0.5l0,0c0-0.3,0.2-0.5,0.5-0.5h4.9c0.3,0,0.5,0.2,0.5,0.5l0,0
	C512.4,128.8,512.2,129.1,511.9,129.1z"/>
<g>
	<path class="st14" d="M512.9,129.5H508c-0.3,0-0.5-0.2-0.5-0.5l0,0c0-0.3,0.2-0.5,0.5-0.5h4.9c0.3,0,0.5,0.2,0.5,0.5l0,0
		C513.4,129.3,513.1,129.5,512.9,129.5z"/>
</g>
<path class="st12" d="M517.3,129.1h4.9c0.3,0,0.5-0.2,0.5-0.5l0,0c0-0.3-0.2-0.5-0.5-0.5h-4.9c-0.3,0-0.5,0.2-0.5,0.5l0,0
	C516.8,128.8,517,129.1,517.3,129.1z"/>
<g>
	<path class="st14" d="M516.3,129.5h4.9c0.3,0,0.5-0.2,0.5-0.5l0,0c0-0.3-0.2-0.5-0.5-0.5h-4.9c-0.3,0-0.5,0.2-0.5,0.5l0,0
		C515.8,129.3,516,129.5,516.3,129.5z"/>
</g>
<path class="st15" d="M519.7,144.2c0,0.5-0.1,1-0.3,1.5c-0.4,1-1,1.8-1.8,2.4h-6c-0.8-0.6-1.5-1.5-1.8-2.4c-0.2-0.5-0.3-1-0.3-1.5
	H519.7z"/>
<path class="st16" d="M531.6,200.4H497c-6.6,0-12-5.4-12-12v-17.5c0-6.6,5.4-12,12-12h34.6c6.6,0,12,5.4,12,12v17.5
	C543.6,195,538.2,200.4,531.6,200.4z"/>
<path class="st17" d="M531.6,200.4H497c-6.6,0-12-5.4-12-12v-14.1c0-6.6,5.4-12,12-12h34.6c6.6,0,12,5.4,12,12v14.1
	C543.6,195,538.2,200.4,531.6,200.4z"/>
<circle class="st18" cx="514.6" cy="182.1" r="4.2"/>
<path class="st19" d="M468.4,267.8L468.4,267.8c-4.8,0-8.8-4-8.8-8.8v-47.2c0-4.8,4-8.8,8.8-8.8h0c4.8,0,8.8,4,8.8,8.8V259
	C477.2,263.9,473.2,267.8,468.4,267.8z"/>
<path class="st19" d="M564.7,265.4L564.7,265.4c-4.8,0-8.8-4-8.8-8.8v-44.8c0-4.8,4-8.8,8.8-8.8h0c4.8,0,8.8,4,8.8,8.8v44.8
	C573.5,261.4,569.5,265.4,564.7,265.4z"/>
<path class="st19" d="M563.7,219h-94.8c-5.1,0-9.3-4.2-9.3-9.3v0c0-5.1,4.2-9.3,9.3-9.3h94.8c5.1,0,9.3,4.2,9.3,9.3v0
	C573,214.8,568.8,219,563.7,219z"/>
<g>
	<path class="st20" d="M471.8,279.1L471.8,279.1c-1.6,0-2.9-1.3-2.9-2.9v-7.3c0-1.6,1.3-2.9,2.9-2.9l0,0c1.6,0,2.9,1.3,2.9,2.9v7.3
		C474.8,277.7,473.4,279.1,471.8,279.1z"/>
	<path class="st21" d="M464.7,273.7L464.7,273.7c-3.4,0-6.1-2.7-6.1-6.1v-4.4c0-3.4,2.7-6.1,6.1-6.1h0c3.4,0,6.1,2.7,6.1,6.1v4.4
		C470.8,270.9,468.1,273.7,464.7,273.7z"/>
	<path class="st20" d="M470.8,279.1h-22.5c0-6.2,5-11.2,11.2-11.2S470.8,272.9,470.8,279.1z"/>
	<rect x="445.9" y="279.1" class="st22" width="28.8" height="2.9"/>
	<path class="st20" d="M465.5,266.9H464c-1.9,0-3.4-1.5-3.4-3.4l0,0c0-1.9,1.5-3.4,3.4-3.4h1.5c1.9,0,3.4,1.5,3.4,3.4l0,0
		C468.9,265.3,467.3,266.9,465.5,266.9z"/>
	<path class="st23" d="M460.1,273.2h-6.8c-0.3,0-0.5-0.2-0.5-0.5l0,0c0-0.3,0.2-0.5,0.5-0.5h6.8c0.3,0,0.5,0.2,0.5,0.5l0,0
		C460.6,273,460.4,273.2,460.1,273.2z"/>
	<path class="st23" d="M469.1,274.7h-3.9c-0.1,0-0.2,0.1-0.2,0.2l0,0c0,0.1,0.1,0.2,0.2,0.2h3.9c0.1,0,0.2-0.1,0.2-0.2l0,0
		C469.4,274.8,469.3,274.7,469.1,274.7z"/>
</g>
<g>
	<path class="st20" d="M559.3,275.6L559.3,275.6c1.6,0,2.9-1.3,2.9-2.9v-7.3c0-1.6-1.3-2.9-2.9-2.9h0c-1.6,0-2.9,1.3-2.9,2.9v7.3
		C556.4,274.3,557.7,275.6,559.3,275.6z"/>
	<path class="st21" d="M566.4,270.3L566.4,270.3c3.4,0,6.1-2.7,6.1-6.1v-4.4c0-3.4-2.7-6.1-6.1-6.1l0,0c-3.4,0-6.1,2.7-6.1,6.1v4.4
		C560.3,267.5,563,270.3,566.4,270.3z"/>
	<path class="st20" d="M560.3,275.6h22.5c0-6.2-5-11.2-11.2-11.2S560.3,269.4,560.3,275.6z"/>
	
		<rect x="556.4" y="275.6" transform="matrix(-1 -4.492330e-11 4.492330e-11 -1 1141.5341 554.2273)" class="st22" width="28.8" height="2.9"/>
	<path class="st20" d="M565.6,263.4h1.5c1.9,0,3.4-1.5,3.4-3.4l0,0c0-1.9-1.5-3.4-3.4-3.4h-1.5c-1.9,0-3.4,1.5-3.4,3.4l0,0
		C562.2,261.9,563.8,263.4,565.6,263.4z"/>
	<path class="st23" d="M571,269.8h6.8c0.3,0,0.5-0.2,0.5-0.5l0,0c0-0.3-0.2-0.5-0.5-0.5H571c-0.3,0-0.5,0.2-0.5,0.5l0,0
		C570.5,269.6,570.7,269.8,571,269.8z"/>
	<path class="st23" d="M562,271.3h3.9c0.1,0,0.2,0.1,0.2,0.2l0,0c0,0.1-0.1,0.2-0.2,0.2H562c-0.1,0-0.2-0.1-0.2-0.2l0,0
		C561.7,271.4,561.8,271.3,562,271.3z"/>
</g>
<rect x="478.7" y="219" class="st24" width="71.8" height="7.8"/>
<path class="st25" d="M500.2,219h-10.8c-1.1,0-2-0.9-2-2l0,0c0-1.1,0.9-2,2-2h10.8c1.1,0,2,0.9,2,2l0,0
	C502.1,218.1,501.2,219,500.2,219z"/>
<path class="st26" d="M542.7,219h-10.8c-1.1,0-2-0.9-2-2l0,0c0-1.1,0.9-2,2-2h10.8c1.1,0,2,0.9,2,2l0,0
	C544.6,218.1,543.7,219,542.7,219z"/>
<polygon class="st27" points="528.5,223.9 528.5,263.9 522.1,263.9 522.1,236.1 507.5,236.1 507.5,263.9 500.6,263.9 500.6,223.9 
	"/>
<circle class="st28" cx="506" cy="226.8" r="2"/>
<circle class="st28" cx="521.2" cy="226.8" r="2"/>
<rect x="478.2" y="219" class="st6" width="73.3" height="3.4"/>
<ellipse class="st6" cx="505.5" cy="120" rx="4.4" ry="4.6"/>
<ellipse class="st6" cx="509" cy="116.6" rx="4.4" ry="4.6"/>
<ellipse class="st6" cx="514.3" cy="114.6" rx="4.4" ry="4.6"/>
<ellipse class="st6" cx="519.2" cy="116.1" rx="4.4" ry="4.6"/>
<ellipse class="st6" cx="523.6" cy="117.6" rx="4.4" ry="4.6"/>
<ellipse class="st6" cx="523.1" cy="121.5" rx="4.4" ry="4.6"/>
<ellipse class="st6" cx="515.8" cy="122.5" rx="4.4" ry="4.6"/>
<ellipse class="st6" cx="509.4" cy="120.5" rx="4.4" ry="4.6"/>
<path class="st29" d="M519.7,144.2c0,0.5-0.1,1-0.3,1.5h-9.7c-0.2-0.5-0.3-1-0.3-1.5H519.7z"/>
<path class="st30" d="M516.8,147.9c0,0.1,0,0.2,0,0.2h-4.8c0-0.1,0-0.2,0-0.2c0-0.5,0.2-0.9,0.5-1.2c0.3-0.3,0.7-0.5,1.2-0.5h1.5
	C516,146.2,516.8,146.9,516.8,147.9z"/>
<rect x="391.7" y="179.4" class="st23" width="57.7" height="80.6"/>
<rect x="386.8" y="260" class="st31" width="66" height="6.8"/>
<rect x="398.5" y="186.2" class="st31" width="41.5" height="70.9"/>
<rect x="383.9" y="184.8" class="st32" width="71.3" height="28.3"/>
<path class="st28" d="M428.1,201.9H410c-0.7,0-1.2-0.5-1.2-1.2l0,0c0-0.7,0.5-1.2,1.2-1.2h18.1c0.7,0,1.2,0.5,1.2,1.2l0,0
	C429.3,201.3,428.8,201.9,428.1,201.9z"/>
<circle class="st28" cx="418.8" cy="205.5" r="1.7"/>
<g>
	<path class="st33" d="M421.6,180.9l-13.6-0.5c-1.9-0.1-3.4-1.7-3.3-3.6v0c0.1-1.9,1.7-3.4,3.6-3.3l13.6,0.5L421.6,180.9z"/>
	<path class="st34" d="M419.5,176.6l-13.1-0.5c-0.3,0-0.5-0.2-0.5-0.5l0,0c0-0.3,0.2-0.5,0.5-0.5l13.1,0.5c0.3,0,0.5,0.2,0.5,0.5
		l0,0C420,176.4,419.8,176.6,419.5,176.6z"/>
	<path class="st34" d="M419.5,178.2l-13.1-0.5c-0.3,0-0.5-0.2-0.5-0.5l0,0c0-0.3,0.2-0.5,0.5-0.5l13.1,0.5c0.3,0,0.5,0.2,0.5,0.5
		l0,0C420,178,419.7,178.2,419.5,178.2z"/>
	<path class="st34" d="M419.4,179.9l-13.1-0.5c-0.3,0-0.5-0.2-0.5-0.5l0,0c0-0.3,0.2-0.5,0.5-0.5l13.1,0.5c0.3,0,0.5,0.2,0.5,0.5
		l0,0C419.9,179.7,419.7,179.9,419.4,179.9z"/>
	<polygon class="st35" points="435.4,173 421.6,180.9 421.8,174 436.1,168.6 	"/>
	<polygon class="st36" points="421.8,174.3 406.3,174 422,167.7 436.1,168.6 	"/>
</g>
<rect x="383.9" y="219.5" class="st32" width="71.3" height="28.3"/>
<path class="st28" d="M428.1,236.6H410c-0.7,0-1.2-0.5-1.2-1.2v0c0-0.7,0.5-1.2,1.2-1.2h18.1c0.7,0,1.2,0.5,1.2,1.2v0
	C429.3,236,428.8,236.6,428.1,236.6z"/>
<circle class="st28" cx="418.8" cy="240.2" r="1.7"/>
<g>
	<path class="st37" d="M453.7,166.2L453.7,166.2c-0.2-0.1-0.3-0.2-0.2-0.4l3-4.4c0.1-0.1,0.3-0.2,0.5-0.1l0,0
		c0.2,0.1,0.3,0.2,0.2,0.4l-3,4.4C454.1,166.2,453.9,166.3,453.7,166.2z"/>
	<polygon class="st35" points="457.6,164.6 455.7,175.9 448.8,175.9 446.9,164.6 	"/>
	<polygon class="st38" points="457.6,164.6 455.7,175.9 451.9,175.9 451.9,164.6 	"/>
</g>
<polygon class="st39" points="560.3,38.5 522.7,83 502.3,83 496.7,78.5 535.1,33 535.9,32 552.3,32 553.5,33 "/>
</svg>
