<?xml version="1.0" encoding="utf-8"?>
<!-- Generator: Adobe Illustrator 21.0.0, SVG Export Plug-In . SVG Version: 6.00 Build 0)  -->
<svg version="1.1" id="Layer_1" xmlns="http://www.w3.org/2000/svg" xmlns:xlink="http://www.w3.org/1999/xlink" x="0px" y="0px"
	 viewBox="0 0 600 300" style="enable-background:new 0 0 600 300;" xml:space="preserve">
<style type="text/css">
	.st0{fill:#ADBCBC;}
	.st1{fill:#497C7B;}
	.st2{fill:#659997;}
	.st3{fill:#3D1C0D;}
	.st4{fill:#331D14;}
	.st5{fill:#D3D3D3;}
	.st6{fill:#F9F9F9;}
	.st7{opacity:0.68;fill:#EAE9E8;}
	.st8{fill:#EAE9E8;}
	.st9{fill:#3F3121;}
	.st10{fill:#594538;}
	.st11{fill:#E0945C;}
	.st12{fill:#A57758;}
	.st13{fill:#2D2A29;}
	.st14{fill:#EDEDED;}
	.st15{fill:#282828;}
	.st16{fill:#E5E1E1;}
	.st17{fill:#AD7D5C;}
	.st18{fill:#E0E0E0;}
	.st19{fill:#DDDDDD;}
	.st20{fill:#3A3A3A;}
	.st21{fill:#126D3B;}
	.st22{fill:#1D1E1E;}
	.st23{fill:#416B6A;}
	.st24{fill:#303030;}
	.st25{fill:#BCBCBC;}
	.st26{fill:#A5BFBE;}
	.st27{opacity:0.57;fill:#A5BFBE;}
	.st28{opacity:0.53;fill:#A5BFBE;}
	.st29{fill:#6B6B6B;}
	.st30{fill:#FFFFFF;}
	.st31{fill:#CCCCCC;}
	.st32{fill:#E20C5E;}
	.st33{fill:#C6C6C6;}
	.st34{fill:#A5A5A5;}
	.st35{fill:#D3A06C;}
	.st36{fill:#5B5652;}
	.st37{fill:#C19770;}
	.st38{fill:#AA8461;}
	.st39{fill:#1C1B1A;}
	.st40{opacity:0.4;fill:#1C1B1A;}
</style>
<rect class="st0" width="600" height="300"/>
<polygon class="st1" points="178,194 0,300 0,0 178,0 "/>
<rect x="178" class="st2" width="422" height="194"/>
<rect x="178" y="176" class="st3" width="422" height="18"/>
<polygon class="st4" points="177.7,194.2 0,300 0,278 178,176.1 "/>
<rect x="243" y="14" class="st5" width="133" height="75"/>
<rect x="247" y="17" class="st6" width="125" height="69"/>
<rect x="296.3" y="176" class="st7" width="23.5" height="93.8"/>
<polygon class="st8" points="296.3,182.4 238.7,182.4 259.7,176 320.3,176 "/>
<ellipse class="st9" cx="361.8" cy="130.3" rx="11.7" ry="11.5"/>
<path class="st10" d="M373.8,191.7h-24.9c-6.6,0-12-5.4-12-12v-15.1c0-6.6,5.4-12,12-12h24.9c6.6,0,12,5.4,12,12v15.1
	C385.8,186.3,380.4,191.7,373.8,191.7z"/>
<g>
	<g>
		<circle class="st11" cx="371.6" cy="139.4" r="2.4"/>
	</g>
	<g>
		<circle class="st12" cx="371.6" cy="139.4" r="2"/>
	</g>
</g>
<g>
	<g>
		<circle class="st11" cx="351.6" cy="138.9" r="2.4"/>
	</g>
	<g>
		<circle class="st12" cx="351.6" cy="138.9" r="2"/>
	</g>
</g>
<g>
	<path class="st11" d="M361.6,158.4L361.6,158.4c-5.5,0-10-4.5-10-10v-11.7c0-5.5,4.5-10,10-10h0c5.5,0,10,4.5,10,10v11.7
		C371.6,153.9,367.1,158.4,361.6,158.4z"/>
</g>
<path class="st13" d="M361.3,144.8L361.3,144.8c-0.5,0-1-0.4-1-1v-5.9c0-0.5,0.4-1,1-1l0,0c0.5,0,1,0.4,1,1v5.9
	C362.3,144.3,361.9,144.8,361.3,144.8z"/>
<g>
	<ellipse transform="matrix(0.7208 -0.6932 0.6932 0.7208 6.5697 285.309)" class="st14" cx="357.4" cy="134.5" rx="1" ry="1"/>
	<ellipse transform="matrix(0.7208 -0.6932 0.6932 0.7208 6.5697 285.309)" class="st15" cx="357.4" cy="134.5" rx="0.5" ry="0.5"/>
	
		<ellipse transform="matrix(0.7208 -0.6932 0.6932 0.7208 6.3981 285.4167)" class="st16" cx="357.5" cy="134.8" rx="0.3" ry="0.3"/>
</g>
<g>
	<ellipse transform="matrix(0.3939 -0.9191 0.9191 0.3939 98.0352 417.6743)" class="st14" cx="365.7" cy="134.5" rx="1" ry="1"/>
	
		<ellipse transform="matrix(0.3939 -0.9191 0.9191 0.3939 98.0352 417.6743)" class="st15" cx="365.7" cy="134.5" rx="0.5" ry="0.5"/>
	
		<ellipse transform="matrix(0.3939 -0.9191 0.9191 0.3939 97.8202 417.8812)" class="st16" cx="365.8" cy="134.8" rx="0.3" ry="0.3"/>
</g>
<path class="st15" d="M358.9,132.1H354c-0.3,0-0.5-0.2-0.5-0.5l0,0c0-0.3,0.2-0.5,0.5-0.5h4.9c0.3,0,0.5,0.2,0.5,0.5l0,0
	C359.4,131.8,359.2,132.1,358.9,132.1z"/>
<g>
	<path class="st17" d="M359.9,132.5H355c-0.3,0-0.5-0.2-0.5-0.5l0,0c0-0.3,0.2-0.5,0.5-0.5h4.9c0.3,0,0.5,0.2,0.5,0.5l0,0
		C360.4,132.3,360.1,132.5,359.9,132.5z"/>
</g>
<path class="st15" d="M364.3,132.1h4.9c0.3,0,0.5-0.2,0.5-0.5l0,0c0-0.3-0.2-0.5-0.5-0.5h-4.9c-0.3,0-0.5,0.2-0.5,0.5l0,0
	C363.8,131.8,364,132.1,364.3,132.1z"/>
<g>
	<path class="st17" d="M363.3,132.5h4.9c0.3,0,0.5-0.2,0.5-0.5l0,0c0-0.3-0.2-0.5-0.5-0.5h-4.9c-0.3,0-0.5,0.2-0.5,0.5l0,0
		C362.8,132.3,363,132.5,363.3,132.5z"/>
</g>
<path class="st18" d="M366.7,147.2c0,0.5-0.1,1-0.3,1.5c-0.4,1-1,1.8-1.8,2.4h-6c-0.8-0.6-1.5-1.5-1.8-2.4c-0.2-0.5-0.3-1-0.3-1.5
	H366.7z"/>
<path class="st19" d="M378.6,203.4H344c-6.6,0-12-5.4-12-12v-17.5c0-6.6,5.4-12,12-12h34.6c6.6,0,12,5.4,12,12v17.5
	C390.6,198,385.2,203.4,378.6,203.4z"/>
<path class="st20" d="M378.6,203.4H344c-6.6,0-12-5.4-12-12v-14.1c0-6.6,5.4-12,12-12h34.6c6.6,0,12,5.4,12,12v14.1
	C390.6,198,385.2,203.4,378.6,203.4z"/>
<circle class="st6" cx="361.6" cy="185.1" r="4.2"/>
<path class="st21" d="M315.4,270.8L315.4,270.8c-4.8,0-8.8-4-8.8-8.8v-47.2c0-4.8,4-8.8,8.8-8.8h0c4.8,0,8.8,4,8.8,8.8V262
	C324.2,266.9,320.2,270.8,315.4,270.8z"/>
<path class="st21" d="M411.7,268.4L411.7,268.4c-4.8,0-8.8-4-8.8-8.8v-44.8c0-4.8,4-8.8,8.8-8.8l0,0c4.8,0,8.8,4,8.8,8.8v44.8
	C420.5,264.4,416.5,268.4,411.7,268.4z"/>
<path class="st21" d="M410.7,222h-94.8c-5.1,0-9.3-4.2-9.3-9.3v0c0-5.1,4.2-9.3,9.3-9.3h94.8c5.1,0,9.3,4.2,9.3,9.3v0
	C420,217.8,415.8,222,410.7,222z"/>
<g>
	<path class="st22" d="M318.8,282.1L318.8,282.1c-1.6,0-2.9-1.3-2.9-2.9v-7.3c0-1.6,1.3-2.9,2.9-2.9l0,0c1.6,0,2.9,1.3,2.9,2.9v7.3
		C321.8,280.7,320.4,282.1,318.8,282.1z"/>
	<path class="st23" d="M311.7,276.7L311.7,276.7c-3.4,0-6.1-2.7-6.1-6.1v-4.4c0-3.4,2.7-6.1,6.1-6.1h0c3.4,0,6.1,2.7,6.1,6.1v4.4
		C317.8,273.9,315.1,276.7,311.7,276.7z"/>
	<path class="st22" d="M317.8,282.1h-22.5c0-6.2,5-11.2,11.2-11.2S317.8,275.9,317.8,282.1z"/>
	<rect x="292.9" y="282.1" class="st24" width="28.8" height="2.9"/>
	<path class="st22" d="M312.5,269.9H311c-1.9,0-3.4-1.5-3.4-3.4l0,0c0-1.9,1.5-3.4,3.4-3.4h1.5c1.9,0,3.4,1.5,3.4,3.4l0,0
		C315.9,268.3,314.3,269.9,312.5,269.9z"/>
	<path class="st25" d="M307.1,276.2h-6.8c-0.3,0-0.5-0.2-0.5-0.5l0,0c0-0.3,0.2-0.5,0.5-0.5h6.8c0.3,0,0.5,0.2,0.5,0.5l0,0
		C307.6,276,307.4,276.2,307.1,276.2z"/>
	<path class="st25" d="M316.1,277.7h-3.9c-0.1,0-0.2,0.1-0.2,0.2l0,0c0,0.1,0.1,0.2,0.2,0.2h3.9c0.1,0,0.2-0.1,0.2-0.2l0,0
		C316.4,277.8,316.3,277.7,316.1,277.7z"/>
</g>
<g>
	<path class="st22" d="M406.3,278.6L406.3,278.6c1.6,0,2.9-1.3,2.9-2.9v-7.3c0-1.6-1.3-2.9-2.9-2.9l0,0c-1.6,0-2.9,1.3-2.9,2.9v7.3
		C403.4,277.3,404.7,278.6,406.3,278.6z"/>
	<path class="st23" d="M413.4,273.3L413.4,273.3c3.4,0,6.1-2.7,6.1-6.1v-4.4c0-3.4-2.7-6.1-6.1-6.1l0,0c-3.4,0-6.1,2.7-6.1,6.1v4.4
		C407.3,270.5,410,273.3,413.4,273.3z"/>
	<path class="st22" d="M407.3,278.6h22.5c0-6.2-5-11.2-11.2-11.2S407.3,272.4,407.3,278.6z"/>
	
		<rect x="403.4" y="278.6" transform="matrix(-1 -4.492330e-11 4.492330e-11 -1 835.5341 560.2273)" class="st24" width="28.8" height="2.9"/>
	<path class="st22" d="M412.6,266.4h1.5c1.9,0,3.4-1.5,3.4-3.4l0,0c0-1.9-1.5-3.4-3.4-3.4h-1.5c-1.9,0-3.4,1.5-3.4,3.4l0,0
		C409.2,264.9,410.8,266.4,412.6,266.4z"/>
	<path class="st25" d="M418,272.8h6.8c0.3,0,0.5-0.2,0.5-0.5l0,0c0-0.3-0.2-0.5-0.5-0.5H418c-0.3,0-0.5,0.2-0.5,0.5l0,0
		C417.5,272.6,417.7,272.8,418,272.8z"/>
	<path class="st25" d="M409,274.3h3.9c0.1,0,0.2,0.1,0.2,0.2l0,0c0,0.1-0.1,0.2-0.2,0.2H409c-0.1,0-0.2-0.1-0.2-0.2l0,0
		C408.7,274.4,408.8,274.3,409,274.3z"/>
</g>
<rect x="325.7" y="222" class="st26" width="71.8" height="7.8"/>
<path class="st27" d="M347.2,222h-10.8c-1.1,0-2-0.9-2-2l0,0c0-1.1,0.9-2,2-2h10.8c1.1,0,2,0.9,2,2l0,0
	C349.1,221.1,348.2,222,347.2,222z"/>
<path class="st28" d="M389.7,222h-10.8c-1.1,0-2-0.9-2-2l0,0c0-1.1,0.9-2,2-2h10.8c1.1,0,2,0.9,2,2l0,0
	C391.6,221.1,390.7,222,389.7,222z"/>
<polygon class="st29" points="375.5,226.9 375.5,266.9 369.1,266.9 369.1,239.1 354.5,239.1 354.5,266.9 347.6,266.9 347.6,226.9 
	"/>
<circle class="st30" cx="353" cy="229.8" r="2"/>
<circle class="st30" cx="368.2" cy="229.8" r="2"/>
<rect x="325.2" y="222" class="st9" width="73.3" height="3.4"/>
<ellipse class="st9" cx="352.5" cy="123" rx="4.4" ry="4.6"/>
<ellipse class="st9" cx="356" cy="119.6" rx="4.4" ry="4.6"/>
<ellipse class="st9" cx="361.3" cy="117.6" rx="4.4" ry="4.6"/>
<ellipse class="st9" cx="366.2" cy="119.1" rx="4.4" ry="4.6"/>
<ellipse class="st9" cx="370.6" cy="120.6" rx="4.4" ry="4.6"/>
<ellipse class="st9" cx="370.1" cy="124.5" rx="4.4" ry="4.6"/>
<ellipse class="st9" cx="362.8" cy="125.5" rx="4.4" ry="4.6"/>
<ellipse class="st9" cx="356.4" cy="123.5" rx="4.4" ry="4.6"/>
<path class="st31" d="M366.7,147.2c0,0.5-0.1,1-0.3,1.5h-9.7c-0.2-0.5-0.3-1-0.3-1.5H366.7z"/>
<path class="st32" d="M363.8,150.9c0,0.1,0,0.2,0,0.2h-4.8c0-0.1,0-0.2,0-0.2c0-0.5,0.2-0.9,0.5-1.2c0.3-0.3,0.7-0.5,1.2-0.5h1.5
	C363,149.2,363.8,149.9,363.8,150.9z"/>
<rect x="238.7" y="182.4" class="st25" width="57.7" height="80.6"/>
<rect x="233.8" y="263" class="st33" width="66" height="6.8"/>
<rect x="245.5" y="189.2" class="st33" width="41.5" height="70.9"/>
<rect x="230.9" y="187.8" class="st34" width="71.3" height="28.3"/>
<path class="st30" d="M275.1,204.9H257c-0.7,0-1.2-0.5-1.2-1.2l0,0c0-0.7,0.5-1.2,1.2-1.2h18.1c0.7,0,1.2,0.5,1.2,1.2l0,0
	C276.3,204.3,275.8,204.9,275.1,204.9z"/>
<circle class="st30" cx="265.8" cy="208.5" r="1.7"/>
<g>
	<path class="st35" d="M268.6,183.9l-13.6-0.5c-1.9-0.1-3.4-1.7-3.3-3.6v0c0.1-1.9,1.7-3.4,3.6-3.3l13.6,0.5L268.6,183.9z"/>
	<path class="st36" d="M266.5,179.6l-13.1-0.5c-0.3,0-0.5-0.2-0.5-0.5l0,0c0-0.3,0.2-0.5,0.5-0.5l13.1,0.5c0.3,0,0.5,0.2,0.5,0.5
		l0,0C267,179.4,266.8,179.6,266.5,179.6z"/>
	<path class="st36" d="M266.5,181.2l-13.1-0.5c-0.3,0-0.5-0.2-0.5-0.5l0,0c0-0.3,0.2-0.5,0.5-0.5l13.1,0.5c0.3,0,0.5,0.2,0.5,0.5
		l0,0C267,181,266.7,181.2,266.5,181.2z"/>
	<path class="st36" d="M266.4,182.9l-13.1-0.5c-0.3,0-0.5-0.2-0.5-0.5l0,0c0-0.3,0.2-0.5,0.5-0.5l13.1,0.5c0.3,0,0.5,0.2,0.5,0.5
		l0,0C266.9,182.7,266.7,182.9,266.4,182.9z"/>
	<polygon class="st37" points="282.4,176 268.6,183.9 268.8,177 283.1,171.6 	"/>
	<polygon class="st38" points="268.8,177.3 253.3,177 269,170.7 283.1,171.6 	"/>
</g>
<rect x="230.9" y="222.5" class="st34" width="71.3" height="28.3"/>
<path class="st30" d="M275.1,239.6H257c-0.7,0-1.2-0.5-1.2-1.2v0c0-0.7,0.5-1.2,1.2-1.2h18.1c0.7,0,1.2,0.5,1.2,1.2v0
	C276.3,239,275.8,239.6,275.1,239.6z"/>
<circle class="st30" cx="265.8" cy="243.2" r="1.7"/>
<g>
	<path class="st39" d="M300.7,169.2L300.7,169.2c-0.2-0.1-0.3-0.2-0.2-0.4l3-4.4c0.1-0.1,0.3-0.2,0.5-0.1l0,0
		c0.2,0.1,0.3,0.2,0.2,0.4l-3,4.4C301.1,169.2,300.9,169.3,300.7,169.2z"/>
	<polygon class="st37" points="304.6,167.6 302.7,178.9 295.8,178.9 293.9,167.6 	"/>
	<polygon class="st40" points="304.6,167.6 302.7,178.9 298.9,178.9 298.9,167.6 	"/>
</g>
</svg>
